<?xml version="1.0" encoding="UTF-8"?>
<svg id="Layer_1" data-name="Layer 1" xmlns="http://www.w3.org/2000/svg" viewBox="0 0 137 131">
  <defs>
    <style>
      .cls-1 {
        fill: #684969;
      }

      .cls-2 {
        fill: #ec9682;
      }
    </style>
  </defs>
  <path class="cls-2" d="m105.76,64.18c0-6.09-4.98-11.07-11.07-11.07h-1.29s0-1.29,0-1.29c0-6.09-4.98-11.07-11.07-11.07-6.09,0-11.07,4.98-11.07,11.07v1.34s0,21.23,0,21.23c0,.28.02.55.04.83.27.02.55.04.83.04h21.23s1.34,0,1.34,0c6.09,0,11.07-4.98,11.07-11.07Z"/>
  <path class="cls-1" d="m94.47,112.75c-6.09,0-11.07-4.98-11.07-11.07v-1.29s-1.29,0-1.29,0c-6.09,0-11.07-4.98-11.07-11.07,0-6.09,4.98-11.07,11.07-11.07h1.34s21.23,0,21.23,0c.28,0,.55.02.83.04.02.27.04.55.04.83v21.23s0,1.34,0,1.34c0,6.09-4.98,11.07-11.07,11.07Z"/>
  <path class="cls-2" d="m34.14,64.18c0-6.09,4.98-11.07,11.07-11.07h1.29s0-1.29,0-1.29c0-6.09,4.98-11.07,11.07-11.07,6.09,0,11.07,4.98,11.07,11.07v1.34s0,21.23,0,21.23c0,.28-.02.55-.04.83-.27.02-.55.04-.83.04h-21.23s-1.34,0-1.34,0c-6.09,0-11.07-4.98-11.07-11.07Z"/>
  <path class="cls-1" d="m45.44,112.75c6.09,0,11.07-4.98,11.07-11.07v-1.29s1.29,0,1.29,0c6.09,0,11.07-4.98,11.07-11.07,0-6.09-4.98-11.07-11.07-11.07h-1.34s-21.23,0-21.23,0c-.28,0-.55.02-.83.04-.02.27-.04.55-.04.83v21.23s0,1.34,0,1.34c0,6.09,4.98,11.07,11.07,11.07Z"/>
</svg>