<?xml version="1.0" encoding="UTF-8"?>
<svg id="Layer_1" data-name="Layer 1" xmlns="http://www.w3.org/2000/svg" viewBox="0 0 196 132">
  <defs>
    <style>
      .cls-1 {
        fill: #684969;
      }

      .cls-2 {
        fill: #ec9682;
      }
    </style>
  </defs>
  <g>
    <path class="cls-1" d="m42.6,47.98c.01.47.04.94.08,1.41.8.14,1.61.23,2.43.27-.08-.71-.13-1.43-.13-2.16-.81.13-1.6.29-2.38.48Z"/>
    <path class="cls-1" d="m52.59,28.25c.6.55,1.17,1.13,1.73,1.72,3.28-2.16,7.19-3.43,11.41-3.43.35,0,.71,0,1.06.03-.09-.82-.24-1.62-.42-2.41-.21,0-.42-.02-.64-.02-4.88,0-9.4,1.52-13.14,4.1Z"/>
    <path class="cls-1" d="m42.66,45.51c.8-.18,1.62-.33,2.44-.45.59-5.46,3.3-10.29,7.29-13.65-.55-.58-1.13-1.14-1.72-1.67-4.52,3.88-7.53,9.48-8.01,15.77Z"/>
    <path class="cls-1" d="m52.39,31.41c.61-.52,1.26-1,1.93-1.44-.56-.59-1.13-1.17-1.73-1.72-.67.46-1.31.96-1.92,1.49.6.53,1.17,1.09,1.72,1.67Z"/>
    <path class="cls-1" d="m45.1,45.06c-.82.12-1.64.27-2.44.45-.05.59-.08,1.18-.08,1.78,0,.23.01.46.02.69.78-.19,1.58-.35,2.38-.48,0-.07,0-.14,0-.21,0-.75.04-1.5.12-2.23Z"/>
    <path class="cls-1" d="m60.5,46.32c-.15-.65-.32-1.29-.51-1.92-.52.47-1.06.9-1.63,1.32.72.18,1.43.38,2.14.6Z"/>
    <path class="cls-1" d="m58.81,48.32c-1.13-.32-2.28-.58-3.45-.78-2.77,1.37-5.89,2.15-9.18,2.15-.35,0-.71,0-1.06-.03.09.82.24,1.62.42,2.41.21,0,.42.02.64.02,4.66,0,9-1.39,12.63-3.77Z"/>
    <path class="cls-1" d="m61.88,42.47c.3.87.57,1.76.8,2.67,4.1-4.18,6.64-9.9,6.64-16.2,0-.71-.04-1.4-.1-2.09-.8-.14-1.61-.23-2.43-.27.09.78.14,1.57.14,2.37,0,5.17-1.9,9.9-5.04,13.54Z"/>
    <path class="cls-1" d="m59.99,44.4c.19.63.36,1.27.51,1.92.22.07.45.15.67.23.53-.45,1.03-.92,1.51-1.41-.23-.9-.5-1.79-.8-2.67-.59.68-1.22,1.33-1.89,1.93Z"/>
    <path class="cls-1" d="m55.36,47.54c1.17.2,2.32.46,3.45.78.64-.42,1.25-.86,1.84-1.34-.05-.22-.1-.44-.15-.66-.7-.22-1.42-.42-2.14-.6-.95.69-1.95,1.3-3.01,1.82Z"/>
    <path class="cls-1" d="m58.77,46.55c-.22-.08-.44-.16-.67-.23.05.22.11.44.15.66.17-.14.35-.28.52-.43Z"/>
    <path class="cls-1" d="m45.11,49.66c-.83-.04-1.64-.14-2.43-.27.08.84.19,1.67.36,2.48.82.11,1.65.18,2.5.2-.19-.79-.33-1.59-.42-2.41Z"/>
    <path class="cls-1" d="m66.79,26.57c.83.04,1.64.14,2.43.27-.08-.84-.19-1.67-.36-2.48-.82-.11-1.65-.18-2.5-.2.19.79.33,1.59.42,2.41Z"/>
    <path class="cls-1" d="m61.65,46.13l-1.51,1.17.4-1.2s.73-.36.76-.38.34.23.34.23"/>
  </g>
  <g>
    <path class="cls-1" d="m65.6,47.98c.01.47.04.94.08,1.41.8.14,1.61.23,2.43.27-.08-.71-.13-1.43-.13-2.16-.81.13-1.6.29-2.38.48Z"/>
    <path class="cls-1" d="m75.59,28.25c.6.55,1.17,1.13,1.73,1.72,3.28-2.16,7.19-3.43,11.41-3.43.35,0,.71,0,1.06.03-.09-.82-.24-1.62-.42-2.41-.21,0-.42-.02-.64-.02-4.88,0-9.4,1.52-13.14,4.1Z"/>
    <path class="cls-1" d="m65.66,45.51c.8-.18,1.62-.33,2.44-.45.59-5.46,3.3-10.29,7.29-13.65-.55-.58-1.13-1.14-1.72-1.67-4.52,3.88-7.53,9.48-8.01,15.77Z"/>
    <path class="cls-1" d="m75.39,31.41c.61-.52,1.26-1,1.93-1.44-.56-.59-1.13-1.17-1.73-1.72-.67.46-1.31.96-1.92,1.49.6.53,1.17,1.09,1.72,1.67Z"/>
    <path class="cls-1" d="m68.1,45.06c-.82.12-1.64.27-2.44.45-.05.59-.08,1.18-.08,1.78,0,.23.01.46.02.69.78-.19,1.58-.35,2.38-.48,0-.07,0-.14,0-.21,0-.75.04-1.5.12-2.23Z"/>
    <path class="cls-1" d="m83.5,46.32c-.15-.65-.32-1.29-.51-1.92-.52.47-1.06.9-1.63,1.32.72.18,1.43.38,2.14.6Z"/>
    <path class="cls-1" d="m81.81,48.32c-1.13-.32-2.28-.58-3.45-.78-2.77,1.37-5.89,2.15-9.18,2.15-.35,0-.71,0-1.06-.03.09.82.24,1.62.42,2.41.21,0,.42.02.64.02,4.66,0,9-1.39,12.63-3.77Z"/>
    <path class="cls-1" d="m84.88,42.47c.3.87.57,1.76.8,2.67,4.1-4.18,6.64-9.9,6.64-16.2,0-.71-.04-1.4-.1-2.09-.8-.14-1.61-.23-2.43-.27.09.78.14,1.57.14,2.37,0,5.17-1.9,9.9-5.04,13.54Z"/>
    <path class="cls-1" d="m82.99,44.4c.19.63.36,1.27.51,1.92.22.07.45.15.67.23.53-.45,1.03-.92,1.51-1.41-.23-.9-.5-1.79-.8-2.67-.59.68-1.22,1.33-1.89,1.93Z"/>
    <path class="cls-1" d="m78.36,47.54c1.17.2,2.32.46,3.45.78.64-.42,1.25-.86,1.84-1.34-.05-.22-.1-.44-.15-.66-.7-.22-1.42-.42-2.14-.6-.95.69-1.95,1.3-3.01,1.82Z"/>
    <path class="cls-1" d="m81.77,46.55c-.22-.08-.44-.16-.67-.23.05.22.11.44.15.66.17-.14.35-.28.52-.43Z"/>
    <path class="cls-1" d="m68.11,49.66c-.83-.04-1.64-.14-2.43-.27.08.84.19,1.67.36,2.48.82.11,1.65.18,2.5.2-.19-.79-.33-1.59-.42-2.41Z"/>
    <path class="cls-1" d="m89.79,26.57c.83.04,1.64.14,2.43.27-.08-.84-.19-1.67-.36-2.48-.82-.11-1.65-.18-2.5-.2.19.79.33,1.59.42,2.41Z"/>
    <path class="cls-1" d="m84.65,46.13l-1.51,1.17.4-1.2s.73-.36.76-.38.34.23.34.23"/>
  </g>
  <g>
    <path class="cls-1" d="m88.6,47.98c.01.47.04.94.08,1.41.8.14,1.61.23,2.43.27-.08-.71-.13-1.43-.13-2.16-.81.13-1.6.29-2.38.48Z"/>
    <path class="cls-1" d="m98.59,28.25c.6.55,1.17,1.13,1.73,1.72,3.28-2.16,7.19-3.43,11.41-3.43.35,0,.71,0,1.06.03-.09-.82-.24-1.62-.42-2.41-.21,0-.42-.02-.64-.02-4.88,0-9.4,1.52-13.14,4.1Z"/>
    <path class="cls-1" d="m88.66,45.51c.8-.18,1.62-.33,2.44-.45.59-5.46,3.3-10.29,7.29-13.65-.55-.58-1.13-1.14-1.72-1.67-4.52,3.88-7.53,9.48-8.01,15.77Z"/>
    <path class="cls-1" d="m98.39,31.41c.61-.52,1.26-1,1.93-1.44-.56-.59-1.13-1.17-1.73-1.72-.67.46-1.31.96-1.92,1.49.6.53,1.17,1.09,1.72,1.67Z"/>
    <path class="cls-1" d="m91.1,45.06c-.82.12-1.64.27-2.44.45-.05.59-.08,1.18-.08,1.78,0,.23.01.46.02.69.78-.19,1.58-.35,2.38-.48,0-.07,0-.14,0-.21,0-.75.04-1.5.12-2.23Z"/>
    <path class="cls-1" d="m106.5,46.32c-.15-.65-.32-1.29-.51-1.92-.52.47-1.06.9-1.63,1.32.72.18,1.43.38,2.14.6Z"/>
    <path class="cls-1" d="m104.81,48.32c-1.13-.32-2.28-.58-3.45-.78-2.77,1.37-5.89,2.15-9.18,2.15-.35,0-.71,0-1.06-.03.09.82.24,1.62.42,2.41.21,0,.42.02.64.02,4.66,0,9-1.39,12.63-3.77Z"/>
    <path class="cls-1" d="m107.88,42.47c.3.87.57,1.76.8,2.67,4.1-4.18,6.64-9.9,6.64-16.2,0-.71-.04-1.4-.1-2.09-.8-.14-1.61-.23-2.43-.27.09.78.14,1.57.14,2.37,0,5.17-1.9,9.9-5.04,13.54Z"/>
    <path class="cls-1" d="m105.99,44.4c.19.63.36,1.27.51,1.92.22.07.45.15.67.23.53-.45,1.03-.92,1.51-1.41-.23-.9-.5-1.79-.8-2.67-.59.68-1.22,1.33-1.89,1.93Z"/>
    <path class="cls-1" d="m101.36,47.54c1.17.2,2.32.46,3.45.78.64-.42,1.25-.86,1.84-1.34-.05-.22-.1-.44-.15-.66-.7-.22-1.42-.42-2.14-.6-.95.69-1.95,1.3-3.01,1.82Z"/>
    <path class="cls-1" d="m104.77,46.55c-.22-.08-.44-.16-.67-.23.05.22.11.44.15.66.17-.14.35-.28.52-.43Z"/>
    <path class="cls-1" d="m91.11,49.66c-.83-.04-1.64-.14-2.43-.27.08.84.19,1.67.36,2.48.82.11,1.65.18,2.5.2-.19-.79-.33-1.59-.42-2.41Z"/>
    <path class="cls-1" d="m112.79,26.57c.83.04,1.64.14,2.43.27-.08-.84-.19-1.67-.36-2.48-.82-.11-1.65-.18-2.5-.2.19.79.33,1.59.42,2.41Z"/>
    <path class="cls-1" d="m107.65,46.13l-1.51,1.17.4-1.2s.73-.36.76-.38.34.23.34.23"/>
  </g>
  <g>
    <path class="cls-1" d="m111.6,47.98c.01.47.04.94.08,1.41.8.14,1.61.23,2.43.27-.08-.71-.13-1.43-.13-2.16-.81.13-1.6.29-2.38.48Z"/>
    <path class="cls-1" d="m121.59,28.25c.6.55,1.17,1.13,1.73,1.72,3.28-2.16,7.19-3.43,11.41-3.43.35,0,.71,0,1.06.03-.09-.82-.24-1.62-.42-2.41-.21,0-.42-.02-.64-.02-4.88,0-9.4,1.52-13.14,4.1Z"/>
    <path class="cls-1" d="m111.66,45.51c.8-.18,1.62-.33,2.44-.45.59-5.46,3.3-10.29,7.29-13.65-.55-.58-1.13-1.14-1.72-1.67-4.52,3.88-7.53,9.48-8.01,15.77Z"/>
    <path class="cls-1" d="m121.39,31.41c.61-.52,1.26-1,1.93-1.44-.56-.59-1.13-1.17-1.73-1.72-.67.46-1.31.96-1.92,1.49.6.53,1.17,1.09,1.72,1.67Z"/>
    <path class="cls-1" d="m114.1,45.06c-.82.12-1.64.27-2.44.45-.05.59-.08,1.18-.08,1.78,0,.23.01.46.02.69.78-.19,1.58-.35,2.38-.48,0-.07,0-.14,0-.21,0-.75.04-1.5.12-2.23Z"/>
    <path class="cls-1" d="m129.5,46.32c-.15-.65-.32-1.29-.51-1.92-.52.47-1.06.9-1.63,1.32.72.18,1.43.38,2.14.6Z"/>
    <path class="cls-1" d="m127.81,48.32c-1.13-.32-2.28-.58-3.45-.78-2.77,1.37-5.89,2.15-9.18,2.15-.35,0-.71,0-1.06-.03.09.82.24,1.62.42,2.41.21,0,.42.02.64.02,4.66,0,9-1.39,12.63-3.77Z"/>
    <path class="cls-1" d="m130.88,42.47c.3.87.57,1.76.8,2.67,4.1-4.18,6.64-9.9,6.64-16.2,0-.71-.04-1.4-.1-2.09-.8-.14-1.61-.23-2.43-.27.09.78.14,1.57.14,2.37,0,5.17-1.9,9.9-5.04,13.54Z"/>
    <path class="cls-1" d="m128.99,44.4c.19.63.36,1.27.51,1.92.22.07.45.15.67.23.53-.45,1.03-.92,1.51-1.41-.23-.9-.5-1.79-.8-2.67-.59.68-1.22,1.33-1.89,1.93Z"/>
    <path class="cls-1" d="m124.36,47.54c1.17.2,2.32.46,3.45.78.64-.42,1.25-.86,1.84-1.34-.05-.22-.1-.44-.15-.66-.7-.22-1.42-.42-2.14-.6-.95.69-1.95,1.3-3.01,1.82Z"/>
    <path class="cls-1" d="m127.77,46.55c-.22-.08-.44-.16-.67-.23.05.22.11.44.15.66.17-.14.35-.28.52-.43Z"/>
    <path class="cls-1" d="m114.11,49.66c-.83-.04-1.64-.14-2.43-.27.08.84.19,1.67.36,2.48.82.11,1.65.18,2.5.2-.19-.79-.33-1.59-.42-2.41Z"/>
    <path class="cls-1" d="m135.79,26.57c.83.04,1.64.14,2.43.27-.08-.84-.19-1.67-.36-2.48-.82-.11-1.65-.18-2.5-.2.19.79.33,1.59.42,2.41Z"/>
    <path class="cls-1" d="m130.65,46.13l-1.51,1.17.4-1.2s.73-.36.76-.38.34.23.34.23"/>
  </g>
  <g>
    <path class="cls-1" d="m134.6,47.98c.01.47.04.94.08,1.41.8.14,1.61.23,2.43.27-.08-.71-.13-1.43-.13-2.16-.81.13-1.6.29-2.38.48Z"/>
    <path class="cls-1" d="m144.59,28.25c.6.55,1.17,1.13,1.73,1.72,3.28-2.16,7.19-3.43,11.41-3.43.35,0,.71,0,1.06.03-.09-.82-.24-1.62-.42-2.41-.21,0-.42-.02-.64-.02-4.88,0-9.4,1.52-13.14,4.1Z"/>
    <path class="cls-1" d="m134.66,45.51c.8-.18,1.62-.33,2.44-.45.59-5.46,3.3-10.29,7.29-13.65-.55-.58-1.13-1.14-1.72-1.67-4.52,3.88-7.53,9.48-8.01,15.77Z"/>
    <path class="cls-1" d="m144.39,31.41c.61-.52,1.26-1,1.93-1.44-.56-.59-1.13-1.17-1.73-1.72-.67.46-1.31.96-1.92,1.49.6.53,1.17,1.09,1.72,1.67Z"/>
    <path class="cls-1" d="m137.1,45.06c-.82.12-1.64.27-2.44.45-.05.59-.08,1.18-.08,1.78,0,.23.01.46.02.69.78-.19,1.58-.35,2.38-.48,0-.07,0-.14,0-.21,0-.75.04-1.5.12-2.23Z"/>
    <path class="cls-1" d="m152.5,46.32c-.15-.65-.32-1.29-.51-1.92-.52.47-1.06.9-1.63,1.32.72.18,1.43.38,2.14.6Z"/>
    <path class="cls-1" d="m150.81,48.32c-1.13-.32-2.28-.58-3.45-.78-2.77,1.37-5.89,2.15-9.18,2.15-.35,0-.71,0-1.06-.03.09.82.24,1.62.42,2.41.21,0,.42.02.64.02,4.66,0,9-1.39,12.63-3.77Z"/>
    <path class="cls-1" d="m153.88,42.47c.3.87.57,1.76.8,2.67,4.1-4.18,6.64-9.9,6.64-16.2,0-.71-.04-1.4-.1-2.09-.8-.14-1.61-.23-2.43-.27.09.78.14,1.57.14,2.37,0,5.17-1.9,9.9-5.04,13.54Z"/>
    <path class="cls-1" d="m151.99,44.4c.19.63.36,1.27.51,1.92.22.07.45.15.67.23.53-.45,1.03-.92,1.51-1.41-.23-.9-.5-1.79-.8-2.67-.59.68-1.22,1.33-1.89,1.93Z"/>
    <path class="cls-1" d="m147.36,47.54c1.17.2,2.32.46,3.45.78.64-.42,1.25-.86,1.84-1.34-.05-.22-.1-.44-.15-.66-.7-.22-1.42-.42-2.14-.6-.95.69-1.95,1.3-3.01,1.82Z"/>
    <path class="cls-1" d="m150.77,46.55c-.22-.08-.44-.16-.67-.23.05.22.11.44.15.66.17-.14.35-.28.52-.43Z"/>
    <path class="cls-1" d="m137.11,49.66c-.83-.04-1.64-.14-2.43-.27.08.84.19,1.67.36,2.48.82.11,1.65.18,2.5.2-.19-.79-.33-1.59-.42-2.41Z"/>
    <path class="cls-1" d="m158.79,26.57c.83.04,1.64.14,2.43.27-.08-.84-.19-1.67-.36-2.48-.82-.11-1.65-.18-2.5-.2.19.79.33,1.59.42,2.41Z"/>
    <path class="cls-1" d="m153.65,46.13l-1.51,1.17.4-1.2s.73-.36.76-.38.34.23.34.23"/>
  </g>
  <g>
    <path class="cls-1" d="m157.6,47.98c.01.47.04.94.08,1.41.8.14,1.61.23,2.43.27-.08-.71-.13-1.43-.13-2.16-.81.13-1.6.29-2.38.48Z"/>
    <path class="cls-1" d="m167.59,28.25c.6.55,1.17,1.13,1.73,1.72,3.28-2.16,7.19-3.43,11.41-3.43.35,0,.71,0,1.06.03-.09-.82-.24-1.62-.42-2.41-.21,0-.42-.02-.64-.02-4.88,0-9.4,1.52-13.14,4.1Z"/>
    <path class="cls-1" d="m157.66,45.51c.8-.18,1.62-.33,2.44-.45.59-5.46,3.3-10.29,7.29-13.65-.55-.58-1.13-1.14-1.72-1.67-4.52,3.88-7.53,9.48-8.01,15.77Z"/>
    <path class="cls-1" d="m167.39,31.41c.61-.52,1.26-1,1.93-1.44-.56-.59-1.13-1.17-1.73-1.72-.67.46-1.31.96-1.92,1.49.6.53,1.17,1.09,1.72,1.67Z"/>
    <path class="cls-1" d="m160.1,45.06c-.82.12-1.64.27-2.44.45-.05.59-.08,1.18-.08,1.78,0,.23.01.46.02.69.78-.19,1.58-.35,2.38-.48,0-.07,0-.14,0-.21,0-.75.04-1.5.12-2.23Z"/>
    <path class="cls-1" d="m175.5,46.32c-.15-.65-.32-1.29-.51-1.92-.52.47-1.06.9-1.63,1.32.72.18,1.43.38,2.14.6Z"/>
    <path class="cls-1" d="m173.81,48.32c-1.13-.32-2.28-.58-3.45-.78-2.77,1.37-5.89,2.15-9.18,2.15-.35,0-.71,0-1.06-.03.09.82.24,1.62.42,2.41.21,0,.42.02.64.02,4.66,0,9-1.39,12.63-3.77Z"/>
    <path class="cls-1" d="m176.88,42.47c.3.87.57,1.76.8,2.67,4.1-4.18,6.64-9.9,6.64-16.2,0-.71-.04-1.4-.1-2.09-.8-.14-1.61-.23-2.43-.27.09.78.14,1.57.14,2.37,0,5.17-1.9,9.9-5.04,13.54Z"/>
    <path class="cls-1" d="m174.99,44.4c.19.63.36,1.27.51,1.92.22.07.45.15.67.23.53-.45,1.03-.92,1.51-1.41-.23-.9-.5-1.79-.8-2.67-.59.68-1.22,1.33-1.89,1.93Z"/>
    <path class="cls-1" d="m170.36,47.54c1.17.2,2.32.46,3.45.78.64-.42,1.25-.86,1.84-1.34-.05-.22-.1-.44-.15-.66-.7-.22-1.42-.42-2.14-.6-.95.69-1.95,1.3-3.01,1.82Z"/>
    <path class="cls-1" d="m173.77,46.55c-.22-.08-.44-.16-.67-.23.05.22.11.44.15.66.17-.14.35-.28.52-.43Z"/>
    <path class="cls-1" d="m160.11,49.66c-.83-.04-1.64-.14-2.43-.27.08.84.19,1.67.36,2.48.82.11,1.65.18,2.5.2-.19-.79-.33-1.59-.42-2.41Z"/>
    <path class="cls-1" d="m181.79,26.57c.83.04,1.64.14,2.43.27-.08-.84-.19-1.67-.36-2.48-.82-.11-1.65-.18-2.5-.2.19.79.33,1.59.42,2.41Z"/>
    <path class="cls-1" d="m176.65,46.13l-1.51,1.17.4-1.2s.73-.36.76-.38.34.23.34.23"/>
  </g>
  <g>
    <path class="cls-2" d="m184.7,80.5c-.01.47-.04.94-.08,1.41-.8.14-1.61.23-2.43.27.08-.71.13-1.43.13-2.16.81.13,1.6.29,2.38.48Z"/>
    <path class="cls-2" d="m174.71,60.77c-.6.55-1.17,1.13-1.73,1.72-3.28-2.16-7.19-3.43-11.41-3.43-.35,0-.71,0-1.06.03.09-.82.24-1.62.42-2.41.21,0,.42-.02.64-.02,4.88,0,9.4,1.52,13.14,4.1Z"/>
    <path class="cls-2" d="m184.64,78.03c-.8-.18-1.62-.33-2.44-.45-.59-5.46-3.3-10.29-7.29-13.65.55-.58,1.13-1.14,1.72-1.67,4.52,3.88,7.53,9.48,8.01,15.77Z"/>
    <path class="cls-2" d="m174.91,63.93c-.61-.52-1.26-1-1.93-1.44.56-.59,1.13-1.17,1.73-1.72.67.46,1.31.96,1.92,1.49-.6.53-1.17,1.09-1.72,1.67Z"/>
    <path class="cls-2" d="m182.2,77.58c.82.12,1.64.27,2.44.45.05.59.08,1.18.08,1.78,0,.23-.01.46-.02.69-.78-.19-1.58-.35-2.38-.48,0-.07,0-.14,0-.21,0-.75-.04-1.5-.12-2.23Z"/>
    <path class="cls-2" d="m166.8,78.84c.15-.65.32-1.29.51-1.92.52.47,1.06.9,1.63,1.32-.72.18-1.43.38-2.14.6Z"/>
    <path class="cls-2" d="m168.49,80.83c1.13-.32,2.28-.58,3.45-.78,2.77,1.37,5.89,2.15,9.18,2.15.35,0,.71,0,1.06-.03-.09.82-.24,1.62-.42,2.41-.21,0-.42.02-.64.02-4.66,0-9-1.39-12.63-3.77Z"/>
    <path class="cls-2" d="m165.41,74.99c-.3.87-.57,1.76-.8,2.67-4.1-4.18-6.64-9.9-6.64-16.2,0-.71.04-1.4.1-2.09.8-.14,1.61-.23,2.43-.27-.09.78-.14,1.57-.14,2.37,0,5.17,1.9,9.9,5.04,13.54Z"/>
    <path class="cls-2" d="m167.31,76.92c-.19.63-.36,1.27-.51,1.92-.22.07-.45.15-.67.23-.53-.45-1.03-.92-1.51-1.41.23-.9.5-1.79.8-2.67.59.68,1.22,1.33,1.89,1.93Z"/>
    <path class="cls-2" d="m171.94,80.06c-1.17.2-2.32.46-3.45.78-.64-.42-1.25-.86-1.84-1.34.05-.22.1-.44.15-.66.7-.22,1.42-.42,2.14-.6.95.69,1.95,1.3,3.01,1.82Z"/>
    <path class="cls-2" d="m168.52,79.06c.22-.08.44-.16.67-.23-.05.22-.11.44-.15.66-.17-.14-.35-.28-.52-.43Z"/>
    <path class="cls-2" d="m182.18,82.18c.83-.04,1.64-.14,2.43-.27-.08.84-.19,1.67-.36,2.48-.82.11-1.65.18-2.5.2.19-.79.33-1.59.42-2.41Z"/>
    <path class="cls-2" d="m160.51,59.08c-.83.04-1.64.14-2.43.27.08-.84.19-1.67.36-2.48.82-.11,1.65-.18,2.5-.2-.19.79-.33,1.59-.42,2.41Z"/>
    <path class="cls-2" d="m165.65,78.64l1.51,1.17-.4-1.2s-.73-.36-.76-.38-.34.23-.34.23"/>
  </g>
  <g>
    <path class="cls-2" d="m161.7,80.5c-.01.47-.04.94-.08,1.41-.8.14-1.61.23-2.43.27.08-.71.13-1.43.13-2.16.81.13,1.6.29,2.38.48Z"/>
    <path class="cls-2" d="m151.71,60.77c-.6.55-1.17,1.13-1.73,1.72-3.28-2.16-7.19-3.43-11.41-3.43-.35,0-.71,0-1.06.03.09-.82.24-1.62.42-2.41.21,0,.42-.02.64-.02,4.88,0,9.4,1.52,13.14,4.1Z"/>
    <path class="cls-2" d="m161.64,78.03c-.8-.18-1.62-.33-2.44-.45-.59-5.46-3.3-10.29-7.29-13.65.55-.58,1.13-1.14,1.72-1.67,4.52,3.88,7.53,9.48,8.01,15.77Z"/>
    <path class="cls-2" d="m151.91,63.93c-.61-.52-1.26-1-1.93-1.44.56-.59,1.13-1.17,1.73-1.72.67.46,1.31.96,1.92,1.49-.6.53-1.17,1.09-1.72,1.67Z"/>
    <path class="cls-2" d="m159.2,77.58c.82.12,1.64.27,2.44.45.05.59.08,1.18.08,1.78,0,.23-.01.46-.02.69-.78-.19-1.58-.35-2.38-.48,0-.07,0-.14,0-.21,0-.75-.04-1.5-.12-2.23Z"/>
    <path class="cls-2" d="m143.8,78.84c.15-.65.32-1.29.51-1.92.52.47,1.06.9,1.63,1.32-.72.18-1.43.38-2.14.6Z"/>
    <path class="cls-2" d="m145.49,80.83c1.13-.32,2.28-.58,3.45-.78,2.77,1.37,5.89,2.15,9.18,2.15.35,0,.71,0,1.06-.03-.09.82-.24,1.62-.42,2.41-.21,0-.42.02-.64.02-4.66,0-9-1.39-12.63-3.77Z"/>
    <path class="cls-2" d="m142.41,74.99c-.3.87-.57,1.76-.8,2.67-4.1-4.18-6.64-9.9-6.64-16.2,0-.71.04-1.4.1-2.09.8-.14,1.61-.23,2.43-.27-.09.78-.14,1.57-.14,2.37,0,5.17,1.9,9.9,5.04,13.54Z"/>
    <path class="cls-2" d="m144.31,76.92c-.19.63-.36,1.27-.51,1.92-.22.07-.45.15-.67.23-.53-.45-1.03-.92-1.51-1.41.23-.9.5-1.79.8-2.67.59.68,1.22,1.33,1.89,1.93Z"/>
    <path class="cls-2" d="m148.94,80.06c-1.17.2-2.32.46-3.45.78-.64-.42-1.25-.86-1.84-1.34.05-.22.1-.44.15-.66.7-.22,1.42-.42,2.14-.6.95.69,1.95,1.3,3.01,1.82Z"/>
    <path class="cls-2" d="m145.52,79.06c.22-.08.44-.16.67-.23-.05.22-.11.44-.15.66-.17-.14-.35-.28-.52-.43Z"/>
    <path class="cls-2" d="m159.18,82.18c.83-.04,1.64-.14,2.43-.27-.08.84-.19,1.67-.36,2.48-.82.11-1.65.18-2.5.2.19-.79.33-1.59.42-2.41Z"/>
    <path class="cls-2" d="m137.51,59.08c-.83.04-1.64.14-2.43.27.08-.84.19-1.67.36-2.48.82-.11,1.65-.18,2.5-.2-.19.79-.33,1.59-.42,2.41Z"/>
    <path class="cls-2" d="m142.65,78.64l1.51,1.17-.4-1.2s-.73-.36-.76-.38-.34.23-.34.23"/>
  </g>
  <g>
    <path class="cls-2" d="m138.7,80.5c-.01.47-.04.94-.08,1.41-.8.14-1.61.23-2.43.27.08-.71.13-1.43.13-2.16.81.13,1.6.29,2.38.48Z"/>
    <path class="cls-2" d="m128.71,60.77c-.6.55-1.17,1.13-1.73,1.72-3.28-2.16-7.19-3.43-11.41-3.43-.35,0-.71,0-1.06.03.09-.82.24-1.62.42-2.41.21,0,.42-.02.64-.02,4.88,0,9.4,1.52,13.14,4.1Z"/>
    <path class="cls-2" d="m138.64,78.03c-.8-.18-1.62-.33-2.44-.45-.59-5.46-3.3-10.29-7.29-13.65.55-.58,1.13-1.14,1.72-1.67,4.52,3.88,7.53,9.48,8.01,15.77Z"/>
    <path class="cls-2" d="m128.91,63.93c-.61-.52-1.26-1-1.93-1.44.56-.59,1.13-1.17,1.73-1.72.67.46,1.31.96,1.92,1.49-.6.53-1.17,1.09-1.72,1.67Z"/>
    <path class="cls-2" d="m136.2,77.58c.82.12,1.64.27,2.44.45.05.59.08,1.18.08,1.78,0,.23-.01.46-.02.69-.78-.19-1.58-.35-2.38-.48,0-.07,0-.14,0-.21,0-.75-.04-1.5-.12-2.23Z"/>
    <path class="cls-2" d="m120.8,78.84c.15-.65.32-1.29.51-1.92.52.47,1.06.9,1.63,1.32-.72.18-1.43.38-2.14.6Z"/>
    <path class="cls-2" d="m122.49,80.83c1.13-.32,2.28-.58,3.45-.78,2.77,1.37,5.89,2.15,9.18,2.15.35,0,.71,0,1.06-.03-.09.82-.24,1.62-.42,2.41-.21,0-.42.02-.64.02-4.66,0-9-1.39-12.63-3.77Z"/>
    <path class="cls-2" d="m119.41,74.99c-.3.87-.57,1.76-.8,2.67-4.1-4.18-6.64-9.9-6.64-16.2,0-.71.04-1.4.1-2.09.8-.14,1.61-.23,2.43-.27-.09.78-.14,1.57-.14,2.37,0,5.17,1.9,9.9,5.04,13.54Z"/>
    <path class="cls-2" d="m121.31,76.92c-.19.63-.36,1.27-.51,1.92-.22.07-.45.15-.67.23-.53-.45-1.03-.92-1.51-1.41.23-.9.5-1.79.8-2.67.59.68,1.22,1.33,1.89,1.93Z"/>
    <path class="cls-2" d="m125.94,80.06c-1.17.2-2.32.46-3.45.78-.64-.42-1.25-.86-1.84-1.34.05-.22.1-.44.15-.66.7-.22,1.42-.42,2.14-.6.95.69,1.95,1.3,3.01,1.82Z"/>
    <path class="cls-2" d="m122.52,79.06c.22-.08.44-.16.67-.23-.05.22-.11.44-.15.66-.17-.14-.35-.28-.52-.43Z"/>
    <path class="cls-2" d="m136.18,82.18c.83-.04,1.64-.14,2.43-.27-.08.84-.19,1.67-.36,2.48-.82.11-1.65.18-2.5.2.19-.79.33-1.59.42-2.41Z"/>
    <path class="cls-2" d="m114.51,59.08c-.83.04-1.64.14-2.43.27.08-.84.19-1.67.36-2.48.82-.11,1.65-.18,2.5-.2-.19.79-.33,1.59-.42,2.41Z"/>
    <path class="cls-2" d="m119.65,78.64l1.51,1.17-.4-1.2s-.73-.36-.76-.38-.34.23-.34.23"/>
  </g>
  <g>
    <path class="cls-2" d="m115.7,80.5c-.01.47-.04.94-.08,1.41-.8.14-1.61.23-2.43.27.08-.71.13-1.43.13-2.16.81.13,1.6.29,2.38.48Z"/>
    <path class="cls-2" d="m105.71,60.77c-.6.55-1.17,1.13-1.73,1.72-3.28-2.16-7.19-3.43-11.41-3.43-.35,0-.71,0-1.06.03.09-.82.24-1.62.42-2.41.21,0,.42-.02.64-.02,4.88,0,9.4,1.52,13.14,4.1Z"/>
    <path class="cls-2" d="m115.64,78.03c-.8-.18-1.62-.33-2.44-.45-.59-5.46-3.3-10.29-7.29-13.65.55-.58,1.13-1.14,1.72-1.67,4.52,3.88,7.53,9.48,8.01,15.77Z"/>
    <path class="cls-2" d="m105.91,63.93c-.61-.52-1.26-1-1.93-1.44.56-.59,1.13-1.17,1.73-1.72.67.46,1.31.96,1.92,1.49-.6.53-1.17,1.09-1.72,1.67Z"/>
    <path class="cls-2" d="m113.2,77.58c.82.12,1.64.27,2.44.45.05.59.08,1.18.08,1.78,0,.23-.01.46-.02.69-.78-.19-1.58-.35-2.38-.48,0-.07,0-.14,0-.21,0-.75-.04-1.5-.12-2.23Z"/>
    <path class="cls-2" d="m97.8,78.84c.15-.65.32-1.29.51-1.92.52.47,1.06.9,1.63,1.32-.72.18-1.43.38-2.14.6Z"/>
    <path class="cls-2" d="m99.49,80.83c1.13-.32,2.28-.58,3.45-.78,2.77,1.37,5.89,2.15,9.18,2.15.35,0,.71,0,1.06-.03-.09.82-.24,1.62-.42,2.41-.21,0-.42.02-.64.02-4.66,0-9-1.39-12.63-3.77Z"/>
    <path class="cls-2" d="m96.41,74.99c-.3.87-.57,1.76-.8,2.67-4.1-4.18-6.64-9.9-6.64-16.2,0-.71.04-1.4.1-2.09.8-.14,1.61-.23,2.43-.27-.09.78-.14,1.57-.14,2.37,0,5.17,1.9,9.9,5.04,13.54Z"/>
    <path class="cls-2" d="m98.31,76.92c-.19.63-.36,1.27-.51,1.92-.22.07-.45.15-.67.23-.53-.45-1.03-.92-1.51-1.41.23-.9.5-1.79.8-2.67.59.68,1.22,1.33,1.89,1.93Z"/>
    <path class="cls-2" d="m102.94,80.06c-1.17.2-2.32.46-3.45.78-.64-.42-1.25-.86-1.84-1.34.05-.22.1-.44.15-.66.7-.22,1.42-.42,2.14-.6.95.69,1.95,1.3,3.01,1.82Z"/>
    <path class="cls-2" d="m99.52,79.06c.22-.08.44-.16.67-.23-.05.22-.11.44-.15.66-.17-.14-.35-.28-.52-.43Z"/>
    <path class="cls-2" d="m113.18,82.18c.83-.04,1.64-.14,2.43-.27-.08.84-.19,1.67-.36,2.48-.82.11-1.65.18-2.5.2.19-.79.33-1.59.42-2.41Z"/>
    <path class="cls-2" d="m91.51,59.08c-.83.04-1.64.14-2.43.27.08-.84.19-1.67.36-2.48.82-.11,1.65-.18,2.5-.2-.19.79-.33,1.59-.42,2.41Z"/>
    <path class="cls-2" d="m96.65,78.64l1.51,1.17-.4-1.2s-.73-.36-.76-.38-.34.23-.34.23"/>
  </g>
  <g>
    <path class="cls-2" d="m92.7,80.5c-.01.47-.04.94-.08,1.41-.8.14-1.61.23-2.43.27.08-.71.13-1.43.13-2.16.81.13,1.6.29,2.38.48Z"/>
    <path class="cls-2" d="m82.71,60.77c-.6.55-1.17,1.13-1.73,1.72-3.28-2.16-7.19-3.43-11.41-3.43-.35,0-.71,0-1.06.03.09-.82.24-1.62.42-2.41.21,0,.42-.02.64-.02,4.88,0,9.4,1.52,13.14,4.1Z"/>
    <path class="cls-2" d="m92.64,78.03c-.8-.18-1.62-.33-2.44-.45-.59-5.46-3.3-10.29-7.29-13.65.55-.58,1.13-1.14,1.72-1.67,4.52,3.88,7.53,9.48,8.01,15.77Z"/>
    <path class="cls-2" d="m82.91,63.93c-.61-.52-1.26-1-1.93-1.44.56-.59,1.13-1.17,1.73-1.72.67.46,1.31.96,1.92,1.49-.6.53-1.17,1.09-1.72,1.67Z"/>
    <path class="cls-2" d="m90.2,77.58c.82.12,1.64.27,2.44.45.05.59.08,1.18.08,1.78,0,.23-.01.46-.02.69-.78-.19-1.58-.35-2.38-.48,0-.07,0-.14,0-.21,0-.75-.04-1.5-.12-2.23Z"/>
    <path class="cls-2" d="m74.8,78.84c.15-.65.32-1.29.51-1.92.52.47,1.06.9,1.63,1.32-.72.18-1.43.38-2.14.6Z"/>
    <path class="cls-2" d="m76.49,80.83c1.13-.32,2.28-.58,3.45-.78,2.77,1.37,5.89,2.15,9.18,2.15.35,0,.71,0,1.06-.03-.09.82-.24,1.62-.42,2.41-.21,0-.42.02-.64.02-4.66,0-9-1.39-12.63-3.77Z"/>
    <path class="cls-2" d="m73.41,74.99c-.3.87-.57,1.76-.8,2.67-4.1-4.18-6.64-9.9-6.64-16.2,0-.71.04-1.4.1-2.09.8-.14,1.61-.23,2.43-.27-.09.78-.14,1.57-.14,2.37,0,5.17,1.9,9.9,5.04,13.54Z"/>
    <path class="cls-2" d="m75.31,76.92c-.19.63-.36,1.27-.51,1.92-.22.07-.45.15-.67.23-.53-.45-1.03-.92-1.51-1.41.23-.9.5-1.79.8-2.67.59.68,1.22,1.33,1.89,1.93Z"/>
    <path class="cls-2" d="m79.94,80.06c-1.17.2-2.32.46-3.45.78-.64-.42-1.25-.86-1.84-1.34.05-.22.1-.44.15-.66.7-.22,1.42-.42,2.14-.6.95.69,1.95,1.3,3.01,1.82Z"/>
    <path class="cls-2" d="m76.52,79.06c.22-.08.44-.16.67-.23-.05.22-.11.44-.15.66-.17-.14-.35-.28-.52-.43Z"/>
    <path class="cls-2" d="m90.18,82.18c.83-.04,1.64-.14,2.43-.27-.08.84-.19,1.67-.36,2.48-.82.11-1.65.18-2.5.2.19-.79.33-1.59.42-2.41Z"/>
    <path class="cls-2" d="m68.51,59.08c-.83.04-1.64.14-2.43.27.08-.84.19-1.67.36-2.48.82-.11,1.65-.18,2.5-.2-.19.79-.33,1.59-.42,2.41Z"/>
    <path class="cls-2" d="m73.65,78.64l1.51,1.17-.4-1.2s-.73-.36-.76-.38-.34.23-.34.23"/>
  </g>
  <g>
    <path class="cls-2" d="m69.7,80.5c-.01.47-.04.94-.08,1.41-.8.14-1.61.23-2.43.27.08-.71.13-1.43.13-2.16.81.13,1.6.29,2.38.48Z"/>
    <path class="cls-2" d="m59.71,60.77c-.6.55-1.17,1.13-1.73,1.72-3.28-2.16-7.19-3.43-11.41-3.43-.35,0-.71,0-1.06.03.09-.82.24-1.62.42-2.41.21,0,.42-.02.64-.02,4.88,0,9.4,1.52,13.14,4.1Z"/>
    <path class="cls-2" d="m69.64,78.03c-.8-.18-1.62-.33-2.44-.45-.59-5.46-3.3-10.29-7.29-13.65.55-.58,1.13-1.14,1.72-1.67,4.52,3.88,7.53,9.48,8.01,15.77Z"/>
    <path class="cls-2" d="m59.91,63.93c-.61-.52-1.26-1-1.93-1.44.56-.59,1.13-1.17,1.73-1.72.67.46,1.31.96,1.92,1.49-.6.53-1.17,1.09-1.72,1.67Z"/>
    <path class="cls-2" d="m67.2,77.58c.82.12,1.64.27,2.44.45.05.59.08,1.18.08,1.78,0,.23-.01.46-.02.69-.78-.19-1.58-.35-2.38-.48,0-.07,0-.14,0-.21,0-.75-.04-1.5-.12-2.23Z"/>
    <path class="cls-2" d="m51.8,78.84c.15-.65.32-1.29.51-1.92.52.47,1.06.9,1.63,1.32-.72.18-1.43.38-2.14.6Z"/>
    <path class="cls-2" d="m53.49,80.83c1.13-.32,2.28-.58,3.45-.78,2.77,1.37,5.89,2.15,9.18,2.15.35,0,.71,0,1.06-.03-.09.82-.24,1.62-.42,2.41-.21,0-.42.02-.64.02-4.66,0-9-1.39-12.63-3.77Z"/>
    <path class="cls-2" d="m50.41,74.99c-.3.87-.57,1.76-.8,2.67-4.1-4.18-6.64-9.9-6.64-16.2,0-.71.04-1.4.1-2.09.8-.14,1.61-.23,2.43-.27-.09.78-.14,1.57-.14,2.37,0,5.17,1.9,9.9,5.04,13.54Z"/>
    <path class="cls-2" d="m52.31,76.92c-.19.63-.36,1.27-.51,1.92-.22.07-.45.15-.67.23-.53-.45-1.03-.92-1.51-1.41.23-.9.5-1.79.8-2.67.59.68,1.22,1.33,1.89,1.93Z"/>
    <path class="cls-2" d="m56.94,80.06c-1.17.2-2.32.46-3.45.78-.64-.42-1.25-.86-1.84-1.34.05-.22.1-.44.15-.66.7-.22,1.42-.42,2.14-.6.95.69,1.95,1.3,3.01,1.82Z"/>
    <path class="cls-2" d="m53.52,79.06c.22-.08.44-.16.67-.23-.05.22-.11.44-.15.66-.17-.14-.35-.28-.52-.43Z"/>
    <path class="cls-2" d="m67.18,82.18c.83-.04,1.64-.14,2.43-.27-.08.84-.19,1.67-.36,2.48-.82.11-1.65.18-2.5.2.19-.79.33-1.59.42-2.41Z"/>
    <path class="cls-2" d="m45.51,59.08c-.83.04-1.64.14-2.43.27.08-.84.19-1.67.36-2.48.82-.11,1.65-.18,2.5-.2-.19.79-.33,1.59-.42,2.41Z"/>
    <path class="cls-2" d="m50.65,78.64l1.51,1.17-.4-1.2s-.73-.36-.76-.38-.34.23-.34.23"/>
  </g>
  <g>
    <path class="cls-1" d="m184.95,93.51c-.01-.47-.04-.94-.08-1.41-.8-.14-1.61-.23-2.43-.27.08.71.13,1.43.13,2.16.81-.13,1.6-.29,2.38-.48Z"/>
    <path class="cls-1" d="m174.96,113.24c-.6-.55-1.17-1.13-1.73-1.72-3.28,2.16-7.19,3.43-11.41,3.43-.35,0-.71,0-1.06-.03.09.82.24,1.62.42,2.41.21,0,.42.02.64.02,4.88,0,9.4-1.52,13.14-4.1Z"/>
    <path class="cls-1" d="m184.89,95.98c-.8.18-1.62.33-2.44.45-.59,5.46-3.3,10.29-7.29,13.65.55.58,1.13,1.14,1.72,1.67,4.52-3.88,7.53-9.48,8.01-15.77Z"/>
    <path class="cls-1" d="m175.15,110.08c-.61.52-1.26,1-1.93,1.44.56.59,1.13,1.17,1.73,1.72.67-.46,1.31-.96,1.92-1.49-.6-.53-1.17-1.09-1.72-1.67Z"/>
    <path class="cls-1" d="m182.45,96.43c.82-.12,1.64-.27,2.44-.45.05-.59.08-1.18.08-1.78,0-.23-.01-.46-.02-.69-.78.19-1.58.35-2.38.48,0,.07,0,.14,0,.21,0,.75-.04,1.5-.12,2.23Z"/>
    <path class="cls-1" d="m167.05,95.17c.15.65.32,1.29.51,1.92.52-.47,1.06-.9,1.63-1.32-.72-.18-1.43-.38-2.14-.6Z"/>
    <path class="cls-1" d="m168.74,93.17c1.13.32,2.28.58,3.45.78,2.77-1.37,5.89-2.15,9.18-2.15.35,0,.71,0,1.06.03-.09-.82-.24-1.62-.42-2.41-.21,0-.42-.02-.64-.02-4.66,0-9,1.39-12.63,3.77Z"/>
    <path class="cls-1" d="m165.66,99.02c-.3-.87-.57-1.76-.8-2.67-4.1,4.18-6.64,9.9-6.64,16.2,0,.71.04,1.4.1,2.09.8.14,1.61.23,2.43.27-.09-.78-.14-1.57-.14-2.37,0-5.17,1.9-9.9,5.04-13.54Z"/>
    <path class="cls-1" d="m167.55,97.09c-.19-.63-.36-1.27-.51-1.92-.22-.07-.45-.15-.67-.23-.53.45-1.03.92-1.51,1.41.23.9.5,1.79.8,2.67.59-.68,1.22-1.33,1.89-1.93Z"/>
    <path class="cls-1" d="m172.19,93.95c-1.17-.2-2.32-.46-3.45-.78-.64.42-1.25.86-1.84,1.34.05.22.1.44.15.66.7.22,1.42.42,2.14.6.95-.69,1.95-1.3,3.01-1.82Z"/>
    <path class="cls-1" d="m168.77,94.94c.22.08.44.16.67.23-.05-.22-.11-.44-.15-.66-.17.14-.35.28-.52.43Z"/>
    <path class="cls-1" d="m182.43,91.83c.83.04,1.64.14,2.43.27-.08-.84-.19-1.67-.36-2.48-.82-.11-1.65-.18-2.5-.2.19.79.33,1.59.42,2.41Z"/>
    <path class="cls-1" d="m160.76,114.92c-.83-.04-1.64-.14-2.43-.27.08.84.19,1.67.36,2.48.82.11,1.65.18,2.5.2-.19-.79-.33-1.59-.42-2.41Z"/>
    <path class="cls-1" d="m165.9,95.36l1.51-1.17-.4,1.2s-.73.36-.76.38-.34-.23-.34-.23"/>
  </g>
  <g>
    <path class="cls-1" d="m161.95,93.51c-.01-.47-.04-.94-.08-1.41-.8-.14-1.61-.23-2.43-.27.08.71.13,1.43.13,2.16.81-.13,1.6-.29,2.38-.48Z"/>
    <path class="cls-1" d="m151.96,113.24c-.6-.55-1.17-1.13-1.73-1.72-3.28,2.16-7.19,3.43-11.41,3.43-.35,0-.71,0-1.06-.03.09.82.24,1.62.42,2.41.21,0,.42.02.64.02,4.88,0,9.4-1.52,13.14-4.1Z"/>
    <path class="cls-1" d="m161.89,95.98c-.8.18-1.62.33-2.44.45-.59,5.46-3.3,10.29-7.29,13.65.55.58,1.13,1.14,1.72,1.67,4.52-3.88,7.53-9.48,8.01-15.77Z"/>
    <path class="cls-1" d="m152.15,110.08c-.61.52-1.26,1-1.93,1.44.56.59,1.13,1.17,1.73,1.72.67-.46,1.31-.96,1.92-1.49-.6-.53-1.17-1.09-1.72-1.67Z"/>
    <path class="cls-1" d="m159.45,96.43c.82-.12,1.64-.27,2.44-.45.05-.59.08-1.18.08-1.78,0-.23-.01-.46-.02-.69-.78.19-1.58.35-2.38.48,0,.07,0,.14,0,.21,0,.75-.04,1.5-.12,2.23Z"/>
    <path class="cls-1" d="m144.05,95.17c.15.65.32,1.29.51,1.92.52-.47,1.06-.9,1.63-1.32-.72-.18-1.43-.38-2.14-.6Z"/>
    <path class="cls-1" d="m145.74,93.17c1.13.32,2.28.58,3.45.78,2.77-1.37,5.89-2.15,9.18-2.15.35,0,.71,0,1.06.03-.09-.82-.24-1.62-.42-2.41-.21,0-.42-.02-.64-.02-4.66,0-9,1.39-12.63,3.77Z"/>
    <path class="cls-1" d="m142.66,99.02c-.3-.87-.57-1.76-.8-2.67-4.1,4.18-6.64,9.9-6.64,16.2,0,.71.04,1.4.1,2.09.8.14,1.61.23,2.43.27-.09-.78-.14-1.57-.14-2.37,0-5.17,1.9-9.9,5.04-13.54Z"/>
    <path class="cls-1" d="m144.55,97.09c-.19-.63-.36-1.27-.51-1.92-.22-.07-.45-.15-.67-.23-.53.45-1.03.92-1.51,1.41.23.9.5,1.79.8,2.67.59-.68,1.22-1.33,1.89-1.93Z"/>
    <path class="cls-1" d="m149.19,93.95c-1.17-.2-2.32-.46-3.45-.78-.64.42-1.25.86-1.84,1.34.05.22.1.44.15.66.7.22,1.42.42,2.14.6.95-.69,1.95-1.3,3.01-1.82Z"/>
    <path class="cls-1" d="m145.77,94.94c.22.08.44.16.67.23-.05-.22-.11-.44-.15-.66-.17.14-.35.28-.52.43Z"/>
    <path class="cls-1" d="m159.43,91.83c.83.04,1.64.14,2.43.27-.08-.84-.19-1.67-.36-2.48-.82-.11-1.65-.18-2.5-.2.19.79.33,1.59.42,2.41Z"/>
    <path class="cls-1" d="m137.76,114.92c-.83-.04-1.64-.14-2.43-.27.08.84.19,1.67.36,2.48.82.11,1.65.18,2.5.2-.19-.79-.33-1.59-.42-2.41Z"/>
    <path class="cls-1" d="m142.9,95.36l1.51-1.17-.4,1.2s-.73.36-.76.38-.34-.23-.34-.23"/>
  </g>
  <g>
    <path class="cls-1" d="m138.95,93.51c-.01-.47-.04-.94-.08-1.41-.8-.14-1.61-.23-2.43-.27.08.71.13,1.43.13,2.16.81-.13,1.6-.29,2.38-.48Z"/>
    <path class="cls-1" d="m128.96,113.24c-.6-.55-1.17-1.13-1.73-1.72-3.28,2.16-7.19,3.43-11.41,3.43-.35,0-.71,0-1.06-.03.09.82.24,1.62.42,2.41.21,0,.42.02.64.02,4.88,0,9.4-1.52,13.14-4.1Z"/>
    <path class="cls-1" d="m138.89,95.98c-.8.18-1.62.33-2.44.45-.59,5.46-3.3,10.29-7.29,13.65.55.58,1.13,1.14,1.72,1.67,4.52-3.88,7.53-9.48,8.01-15.77Z"/>
    <path class="cls-1" d="m129.15,110.08c-.61.52-1.26,1-1.93,1.44.56.59,1.13,1.17,1.73,1.72.67-.46,1.31-.96,1.92-1.49-.6-.53-1.17-1.09-1.72-1.67Z"/>
    <path class="cls-1" d="m136.45,96.43c.82-.12,1.64-.27,2.44-.45.05-.59.08-1.18.08-1.78,0-.23-.01-.46-.02-.69-.78.19-1.58.35-2.38.48,0,.07,0,.14,0,.21,0,.75-.04,1.5-.12,2.23Z"/>
    <path class="cls-1" d="m121.05,95.17c.15.65.32,1.29.51,1.92.52-.47,1.06-.9,1.63-1.32-.72-.18-1.43-.38-2.14-.6Z"/>
    <path class="cls-1" d="m122.74,93.17c1.13.32,2.28.58,3.45.78,2.77-1.37,5.89-2.15,9.18-2.15.35,0,.71,0,1.06.03-.09-.82-.24-1.62-.42-2.41-.21,0-.42-.02-.64-.02-4.66,0-9,1.39-12.63,3.77Z"/>
    <path class="cls-1" d="m119.66,99.02c-.3-.87-.57-1.76-.8-2.67-4.1,4.18-6.64,9.9-6.64,16.2,0,.71.04,1.4.1,2.09.8.14,1.61.23,2.43.27-.09-.78-.14-1.57-.14-2.37,0-5.17,1.9-9.9,5.04-13.54Z"/>
    <path class="cls-1" d="m121.55,97.09c-.19-.63-.36-1.27-.51-1.92-.22-.07-.45-.15-.67-.23-.53.45-1.03.92-1.51,1.41.23.9.5,1.79.8,2.67.59-.68,1.22-1.33,1.89-1.93Z"/>
    <path class="cls-1" d="m126.19,93.95c-1.17-.2-2.32-.46-3.45-.78-.64.42-1.25.86-1.84,1.34.05.22.1.44.15.66.7.22,1.42.42,2.14.6.95-.69,1.95-1.3,3.01-1.82Z"/>
    <path class="cls-1" d="m122.77,94.94c.22.08.44.16.67.23-.05-.22-.11-.44-.15-.66-.17.14-.35.28-.52.43Z"/>
    <path class="cls-1" d="m136.43,91.83c.83.04,1.64.14,2.43.27-.08-.84-.19-1.67-.36-2.48-.82-.11-1.65-.18-2.5-.2.19.79.33,1.59.42,2.41Z"/>
    <path class="cls-1" d="m114.76,114.92c-.83-.04-1.64-.14-2.43-.27.08.84.19,1.67.36,2.48.82.11,1.65.18,2.5.2-.19-.79-.33-1.59-.42-2.41Z"/>
    <path class="cls-1" d="m119.9,95.36l1.51-1.17-.4,1.2s-.73.36-.76.38-.34-.23-.34-.23"/>
  </g>
  <g>
    <path class="cls-1" d="m115.95,93.51c-.01-.47-.04-.94-.08-1.41-.8-.14-1.61-.23-2.43-.27.08.71.13,1.43.13,2.16.81-.13,1.6-.29,2.38-.48Z"/>
    <path class="cls-1" d="m105.96,113.24c-.6-.55-1.17-1.13-1.73-1.72-3.28,2.16-7.19,3.43-11.41,3.43-.35,0-.71,0-1.06-.03.09.82.24,1.62.42,2.41.21,0,.42.02.64.02,4.88,0,9.4-1.52,13.14-4.1Z"/>
    <path class="cls-1" d="m115.89,95.98c-.8.18-1.62.33-2.44.45-.59,5.46-3.3,10.29-7.29,13.65.55.58,1.13,1.14,1.72,1.67,4.52-3.88,7.53-9.48,8.01-15.77Z"/>
    <path class="cls-1" d="m106.15,110.08c-.61.52-1.26,1-1.93,1.44.56.59,1.13,1.17,1.73,1.72.67-.46,1.31-.96,1.92-1.49-.6-.53-1.17-1.09-1.72-1.67Z"/>
    <path class="cls-1" d="m113.45,96.43c.82-.12,1.64-.27,2.44-.45.05-.59.08-1.18.08-1.78,0-.23-.01-.46-.02-.69-.78.19-1.58.35-2.38.48,0,.07,0,.14,0,.21,0,.75-.04,1.5-.12,2.23Z"/>
    <path class="cls-1" d="m98.05,95.17c.15.65.32,1.29.51,1.92.52-.47,1.06-.9,1.63-1.32-.72-.18-1.43-.38-2.14-.6Z"/>
    <path class="cls-1" d="m99.74,93.17c1.13.32,2.28.58,3.45.78,2.77-1.37,5.89-2.15,9.18-2.15.35,0,.71,0,1.06.03-.09-.82-.24-1.62-.42-2.41-.21,0-.42-.02-.64-.02-4.66,0-9,1.39-12.63,3.77Z"/>
    <path class="cls-1" d="m96.66,99.02c-.3-.87-.57-1.76-.8-2.67-4.1,4.18-6.64,9.9-6.64,16.2,0,.71.04,1.4.1,2.09.8.14,1.61.23,2.43.27-.09-.78-.14-1.57-.14-2.37,0-5.17,1.9-9.9,5.04-13.54Z"/>
    <path class="cls-1" d="m98.55,97.09c-.19-.63-.36-1.27-.51-1.92-.22-.07-.45-.15-.67-.23-.53.45-1.03.92-1.51,1.41.23.9.5,1.79.8,2.67.59-.68,1.22-1.33,1.89-1.93Z"/>
    <path class="cls-1" d="m103.19,93.95c-1.17-.2-2.32-.46-3.45-.78-.64.42-1.25.86-1.84,1.34.05.22.1.44.15.66.7.22,1.42.42,2.14.6.95-.69,1.95-1.3,3.01-1.82Z"/>
    <path class="cls-1" d="m99.77,94.94c.22.08.44.16.67.23-.05-.22-.11-.44-.15-.66-.17.14-.35.28-.52.43Z"/>
    <path class="cls-1" d="m113.43,91.83c.83.04,1.64.14,2.43.27-.08-.84-.19-1.67-.36-2.48-.82-.11-1.65-.18-2.5-.2.19.79.33,1.59.42,2.41Z"/>
    <path class="cls-1" d="m91.76,114.92c-.83-.04-1.64-.14-2.43-.27.08.84.19,1.67.36,2.48.82.11,1.65.18,2.5.2-.19-.79-.33-1.59-.42-2.41Z"/>
    <path class="cls-1" d="m96.9,95.36l1.51-1.17-.4,1.2s-.73.36-.76.38-.34-.23-.34-.23"/>
  </g>
  <g>
    <path class="cls-1" d="m92.95,93.51c-.01-.47-.04-.94-.08-1.41-.8-.14-1.61-.23-2.43-.27.08.71.13,1.43.13,2.16.81-.13,1.6-.29,2.38-.48Z"/>
    <path class="cls-1" d="m82.96,113.24c-.6-.55-1.17-1.13-1.73-1.72-3.28,2.16-7.19,3.43-11.41,3.43-.35,0-.71,0-1.06-.03.09.82.24,1.62.42,2.41.21,0,.42.02.64.02,4.88,0,9.4-1.52,13.14-4.1Z"/>
    <path class="cls-1" d="m92.89,95.98c-.8.18-1.62.33-2.44.45-.59,5.46-3.3,10.29-7.29,13.65.55.58,1.13,1.14,1.72,1.67,4.52-3.88,7.53-9.48,8.01-15.77Z"/>
    <path class="cls-1" d="m83.15,110.08c-.61.52-1.26,1-1.93,1.44.56.59,1.13,1.17,1.73,1.72.67-.46,1.31-.96,1.92-1.49-.6-.53-1.17-1.09-1.72-1.67Z"/>
    <path class="cls-1" d="m90.45,96.43c.82-.12,1.64-.27,2.44-.45.05-.59.08-1.18.08-1.78,0-.23-.01-.46-.02-.69-.78.19-1.58.35-2.38.48,0,.07,0,.14,0,.21,0,.75-.04,1.5-.12,2.23Z"/>
    <path class="cls-1" d="m75.05,95.17c.15.65.32,1.29.51,1.92.52-.47,1.06-.9,1.63-1.32-.72-.18-1.43-.38-2.14-.6Z"/>
    <path class="cls-1" d="m76.74,93.17c1.13.32,2.28.58,3.45.78,2.77-1.37,5.89-2.15,9.18-2.15.35,0,.71,0,1.06.03-.09-.82-.24-1.62-.42-2.41-.21,0-.42-.02-.64-.02-4.66,0-9,1.39-12.63,3.77Z"/>
    <path class="cls-1" d="m73.66,99.02c-.3-.87-.57-1.76-.8-2.67-4.1,4.18-6.64,9.9-6.64,16.2,0,.71.04,1.4.1,2.09.8.14,1.61.23,2.43.27-.09-.78-.14-1.57-.14-2.37,0-5.17,1.9-9.9,5.04-13.54Z"/>
    <path class="cls-1" d="m75.55,97.09c-.19-.63-.36-1.27-.51-1.92-.22-.07-.45-.15-.67-.23-.53.45-1.03.92-1.51,1.41.23.9.5,1.79.8,2.67.59-.68,1.22-1.33,1.89-1.93Z"/>
    <path class="cls-1" d="m80.19,93.95c-1.17-.2-2.32-.46-3.45-.78-.64.42-1.25.86-1.84,1.34.05.22.1.44.15.66.7.22,1.42.42,2.14.6.95-.69,1.95-1.3,3.01-1.82Z"/>
    <path class="cls-1" d="m76.77,94.94c.22.08.44.16.67.23-.05-.22-.11-.44-.15-.66-.17.14-.35.28-.52.43Z"/>
    <path class="cls-1" d="m90.43,91.83c.83.04,1.64.14,2.43.27-.08-.84-.19-1.67-.36-2.48-.82-.11-1.65-.18-2.5-.2.19.79.33,1.59.42,2.41Z"/>
    <path class="cls-1" d="m68.76,114.92c-.83-.04-1.64-.14-2.43-.27.08.84.19,1.67.36,2.48.82.11,1.65.18,2.5.2-.19-.79-.33-1.59-.42-2.41Z"/>
    <path class="cls-1" d="m73.9,95.36l1.51-1.17-.4,1.2s-.73.36-.76.38-.34-.23-.34-.23"/>
  </g>
  <g>
    <path class="cls-1" d="m69.95,93.51c-.01-.47-.04-.94-.08-1.41-.8-.14-1.61-.23-2.43-.27.08.71.13,1.43.13,2.16.81-.13,1.6-.29,2.38-.48Z"/>
    <path class="cls-1" d="m59.96,113.24c-.6-.55-1.17-1.13-1.73-1.72-3.28,2.16-7.19,3.43-11.41,3.43-.35,0-.71,0-1.06-.03.09.82.24,1.62.42,2.41.21,0,.42.02.64.02,4.88,0,9.4-1.52,13.14-4.1Z"/>
    <path class="cls-1" d="m69.89,95.98c-.8.18-1.62.33-2.44.45-.59,5.46-3.3,10.29-7.29,13.65.55.58,1.13,1.14,1.72,1.67,4.52-3.88,7.53-9.48,8.01-15.77Z"/>
    <path class="cls-1" d="m60.15,110.08c-.61.52-1.26,1-1.93,1.44.56.59,1.13,1.17,1.73,1.72.67-.46,1.31-.96,1.92-1.49-.6-.53-1.17-1.09-1.72-1.67Z"/>
    <path class="cls-1" d="m67.45,96.43c.82-.12,1.64-.27,2.44-.45.05-.59.08-1.18.08-1.78,0-.23-.01-.46-.02-.69-.78.19-1.58.35-2.38.48,0,.07,0,.14,0,.21,0,.75-.04,1.5-.12,2.23Z"/>
    <path class="cls-1" d="m52.05,95.17c.15.65.32,1.29.51,1.92.52-.47,1.06-.9,1.63-1.32-.72-.18-1.43-.38-2.14-.6Z"/>
    <path class="cls-1" d="m53.74,93.17c1.13.32,2.28.58,3.45.78,2.77-1.37,5.89-2.15,9.18-2.15.35,0,.71,0,1.06.03-.09-.82-.24-1.62-.42-2.41-.21,0-.42-.02-.64-.02-4.66,0-9,1.39-12.63,3.77Z"/>
    <path class="cls-1" d="m50.66,99.02c-.3-.87-.57-1.76-.8-2.67-4.1,4.18-6.64,9.9-6.64,16.2,0,.71.04,1.4.1,2.09.8.14,1.61.23,2.43.27-.09-.78-.14-1.57-.14-2.37,0-5.17,1.9-9.9,5.04-13.54Z"/>
    <path class="cls-1" d="m52.55,97.09c-.19-.63-.36-1.27-.51-1.92-.22-.07-.45-.15-.67-.23-.53.45-1.03.92-1.51,1.41.23.9.5,1.79.8,2.67.59-.68,1.22-1.33,1.89-1.93Z"/>
    <path class="cls-1" d="m57.19,93.95c-1.17-.2-2.32-.46-3.45-.78-.64.42-1.25.86-1.84,1.34.05.22.1.44.15.66.7.22,1.42.42,2.14.6.95-.69,1.95-1.3,3.01-1.82Z"/>
    <path class="cls-1" d="m53.77,94.94c.22.08.44.16.67.23-.05-.22-.11-.44-.15-.66-.17.14-.35.28-.52.43Z"/>
    <path class="cls-1" d="m67.43,91.83c.83.04,1.64.14,2.43.27-.08-.84-.19-1.67-.36-2.48-.82-.11-1.65-.18-2.5-.2.19.79.33,1.59.42,2.41Z"/>
    <path class="cls-1" d="m45.76,114.92c-.83-.04-1.64-.14-2.43-.27.08.84.19,1.67.36,2.48.82.11,1.65.18,2.5.2-.19-.79-.33-1.59-.42-2.41Z"/>
    <path class="cls-1" d="m50.9,95.36l1.51-1.17-.4,1.2s-.73.36-.76.38-.34-.23-.34-.23"/>
  </g>
</svg>