<?xml version="1.0" encoding="UTF-8"?>
<svg id="Layer_1" data-name="Layer 1" xmlns="http://www.w3.org/2000/svg" viewBox="0 0 52 50">
  <defs>
    <style>
      .cls-1 {
        fill: #ec9682;
      }
    </style>
  </defs>
  <path class="cls-1" d="m42.7,34.5c-.01.47-.04.94-.08,1.41-.8.14-1.61.23-2.43.27.08-.71.13-1.43.13-2.16.81.13,1.6.29,2.38.48Z"/>
  <path class="cls-1" d="m32.71,14.77c-.6.55-1.17,1.13-1.73,1.72-3.28-2.16-7.19-3.43-11.41-3.43-.35,0-.71,0-1.06.03.09-.82.24-1.62.42-2.41.21,0,.42-.02.64-.02,4.88,0,9.4,1.52,13.14,4.1Z"/>
  <path class="cls-1" d="m42.64,32.03c-.8-.18-1.62-.33-2.44-.45-.59-5.46-3.3-10.29-7.29-13.65.55-.58,1.13-1.14,1.72-1.67,4.52,3.88,7.53,9.48,8.01,15.77Z"/>
  <path class="cls-1" d="m32.91,17.93c-.61-.52-1.26-1-1.93-1.44.56-.59,1.13-1.17,1.73-1.72.67.46,1.31.96,1.92,1.49-.6.53-1.17,1.09-1.72,1.67Z"/>
  <path class="cls-1" d="m40.2,31.58c.82.12,1.64.27,2.44.45.05.59.08,1.18.08,1.78,0,.23-.01.46-.02.69-.78-.19-1.58-.35-2.38-.48,0-.07,0-.14,0-.21,0-.75-.04-1.5-.12-2.23Z"/>
  <path class="cls-1" d="m24.8,32.84c.15-.65.32-1.29.51-1.92.52.47,1.06.9,1.63,1.32-.72.18-1.43.38-2.14.6Z"/>
  <path class="cls-1" d="m26.49,34.83c1.13-.32,2.28-.58,3.45-.78,2.77,1.37,5.89,2.15,9.18,2.15.35,0,.71,0,1.06-.03-.09.82-.24,1.62-.42,2.41-.21,0-.42.02-.64.02-4.66,0-9-1.39-12.63-3.77Z"/>
  <path class="cls-1" d="m23.41,28.99c-.3.87-.57,1.76-.8,2.67-4.1-4.18-6.64-9.9-6.64-16.2,0-.71.04-1.4.1-2.09.8-.14,1.61-.23,2.43-.27-.09.78-.14,1.57-.14,2.37,0,5.17,1.9,9.9,5.04,13.54Z"/>
  <path class="cls-1" d="m25.31,30.92c-.19.63-.36,1.27-.51,1.92-.22.07-.45.15-.67.23-.53-.45-1.03-.92-1.51-1.41.23-.9.5-1.79.8-2.67.59.68,1.22,1.33,1.89,1.93Z"/>
  <path class="cls-1" d="m29.94,34.06c-1.17.2-2.32.46-3.45.78-.64-.42-1.25-.86-1.84-1.34.05-.22.1-.44.15-.66.7-.22,1.42-.42,2.14-.6.95.69,1.95,1.3,3.01,1.82Z"/>
  <path class="cls-1" d="m26.52,33.06c.22-.08.44-.16.67-.23-.05.22-.11.44-.15.66-.17-.14-.35-.28-.52-.43Z"/>
  <path class="cls-1" d="m40.18,36.18c.83-.04,1.64-.14,2.43-.27-.08.84-.19,1.67-.36,2.48-.82.11-1.65.18-2.5.2.19-.79.33-1.59.42-2.41Z"/>
  <path class="cls-1" d="m18.51,13.08c-.83.04-1.64.14-2.43.27.08-.84.19-1.67.36-2.48.82-.11,1.65-.18,2.5-.2-.19.79-.33,1.59-.42,2.41Z"/>
  <path class="cls-1" d="m23.65,32.64l1.51,1.17-.4-1.2s-.73-.36-.76-.38-.34.23-.34.23"/>
</svg>