<?xml version="1.0" encoding="UTF-8"?>
<svg id="Layer_1" data-name="Layer 1" xmlns="http://www.w3.org/2000/svg" viewBox="0 0 657.39 657.39">
  <defs>
    <style>
      .cls-1 {
        fill: #684969;
      }

      .cls-2 {
        fill: #ec9682;
      }
    </style>
  </defs>
  <path class="cls-2" d="m201.48,301.3c.71,0,1.32.28,1.84.82l5.14,5.57c-2.84,3.52-6.34,6.22-10.49,8.09s-9.13,2.81-14.94,2.81c-5.2,0-9.87-.89-14.02-2.66-4.15-1.78-7.69-4.25-10.63-7.41s-5.19-6.94-6.76-11.33c-1.57-4.39-2.35-9.19-2.35-14.39s.87-10.08,2.62-14.46,4.2-8.15,7.36-11.31,6.95-5.63,11.36-7.39c4.41-1.76,9.27-2.64,14.6-2.64s9.74.83,13.63,2.49c3.89,1.66,7.22,3.87,10,6.61l-4.36,6.05c-.26.39-.59.73-.99,1.02s-.96.44-1.67.44-1.5-.29-2.28-.87c-.77-.58-1.76-1.21-2.95-1.89s-2.7-1.31-4.53-1.89c-1.82-.58-4.14-.87-6.95-.87-3.29,0-6.32.57-9.08,1.72s-5.13,2.78-7.12,4.92-3.53,4.72-4.65,7.77c-1.11,3.05-1.67,6.48-1.67,10.29s.56,7.44,1.67,10.51,2.62,5.65,4.53,7.75c1.9,2.1,4.15,3.71,6.73,4.82,2.58,1.11,5.36,1.67,8.33,1.67,1.78,0,3.38-.1,4.82-.29,1.44-.19,2.76-.5,3.97-.92,1.21-.42,2.36-.96,3.44-1.62,1.08-.66,2.16-1.48,3.22-2.45.32-.29.66-.53,1.02-.7.35-.18.74-.27,1.16-.27Z"/>
  <path class="cls-2" d="m256.55,317.81h-5.38c-1.13,0-2.02-.17-2.66-.51-.65-.34-1.13-1.02-1.45-2.06l-1.07-3.54c-1.26,1.13-2.49,2.12-3.71,2.98-1.21.85-2.46,1.57-3.75,2.16-1.29.58-2.66,1.02-4.12,1.31s-3.07.44-4.84.44c-2.1,0-4.04-.28-5.81-.85-1.78-.57-3.3-1.42-4.58-2.55s-2.27-2.54-2.98-4.23c-.71-1.69-1.06-3.65-1.06-5.88,0-1.88.49-3.73,1.48-5.56.99-1.83,2.62-3.48,4.92-4.96s5.34-2.7,9.15-3.67c3.81-.97,8.54-1.46,14.19-1.46v-2.93c0-3.35-.7-5.83-2.11-7.44-1.4-1.61-3.45-2.42-6.13-2.42-1.94,0-3.55.23-4.84.68-1.29.45-2.41.96-3.37,1.53s-1.83,1.07-2.64,1.52c-.81.45-1.7.68-2.66.68-.81,0-1.5-.21-2.08-.63-.58-.42-1.05-.94-1.4-1.55l-2.18-3.83c5.72-5.23,12.61-7.85,20.68-7.85,2.9,0,5.5.48,7.77,1.43s4.21,2.28,5.79,3.97c1.58,1.69,2.79,3.72,3.61,6.08.82,2.36,1.23,4.94,1.23,7.75v31.39Zm-23.25-7.46c1.23,0,2.36-.11,3.39-.33,1.03-.22,2.01-.55,2.93-1,.92-.44,1.81-.99,2.66-1.64.85-.65,1.72-1.42,2.59-2.31v-8.32c-3.49,0-6.4.22-8.74.66-2.34.44-4.22,1-5.64,1.68-1.42.68-2.43,1.48-3.03,2.39-.6.91-.9,1.9-.9,2.98,0,2.11.62,3.63,1.87,4.54s2.86,1.37,4.87,1.37Z"/>
  <path class="cls-2" d="m268.32,317.81v-49.7h7.02c1.23,0,2.08.23,2.57.68.49.45.81,1.23.97,2.33l.73,6.01c1.78-3.07,3.86-5.49,6.25-7.27,2.39-1.78,5.07-2.66,8.04-2.66,2.45,0,4.49.56,6.1,1.69l-1.55,8.96c-.1.58-.31.99-.63,1.23-.32.24-.76.36-1.31.36-.48,0-1.15-.11-1.99-.34-.84-.23-1.96-.34-3.34-.34-2.49,0-4.62.69-6.39,2.06-1.78,1.37-3.28,3.38-4.5,6.03v30.95h-11.96Z"/>
  <path class="cls-2" d="m328.43,267.34c3.13,0,6.01.5,8.64,1.5,2.63,1,4.9,2.46,6.8,4.38,1.9,1.92,3.39,4.28,4.46,7.07,1.07,2.79,1.6,5.98,1.6,9.57,0,.9-.04,1.65-.12,2.25s-.23,1.07-.44,1.4c-.21.34-.49.58-.85.73-.36.15-.81.22-1.36.22h-30.71c.35,5.1,1.73,8.85,4.12,11.24s5.55,3.58,9.49,3.58c1.94,0,3.61-.23,5.01-.68,1.4-.45,2.63-.95,3.68-1.5s1.97-1.05,2.76-1.5c.79-.45,1.56-.68,2.3-.68.49,0,.91.1,1.26.29s.66.47.92.82l3.49,4.36c-1.32,1.55-2.81,2.85-4.46,3.9-1.65,1.05-3.37,1.89-5.16,2.52-1.79.63-3.62,1.07-5.47,1.33s-3.66.39-5.4.39c-3.46,0-6.67-.57-9.64-1.72-2.97-1.14-5.55-2.84-7.75-5.08-2.2-2.25-3.92-5.02-5.18-8.33-1.26-3.31-1.89-7.14-1.89-11.5,0-3.39.55-6.58,1.65-9.57,1.1-2.99,2.67-5.59,4.72-7.8,2.05-2.21,4.55-3.96,7.51-5.26s6.29-1.94,10-1.94Zm.24,8.57c-3.49,0-6.22.99-8.19,2.95-1.97,1.97-3.23,4.76-3.78,8.38h22.47c0-1.55-.21-3.01-.63-4.38-.42-1.37-1.07-2.57-1.94-3.61-.87-1.03-1.97-1.85-3.29-2.45s-2.87-.9-4.65-.9Z"/>
  <path class="cls-1" d="m193.37,348.02v10.37h-31.05v19.42h24.46v10.03h-24.46v19.81h31.05v10.41h-44.18v-70.04h44.18Z"/>
  <path class="cls-1" d="m203.97,418.06v-49.7h7.32c1.55,0,2.57.73,3.05,2.18l.78,3.68c.87-.97,1.78-1.86,2.74-2.66s1.97-1.5,3.05-2.08c1.08-.58,2.24-1.04,3.49-1.38,1.24-.34,2.61-.51,4.09-.51,3.13,0,5.71.85,7.72,2.54,2.02,1.69,3.53,3.95,4.53,6.76.77-1.65,1.74-3.06,2.91-4.24,1.16-1.18,2.44-2.14,3.83-2.88,1.39-.74,2.86-1.29,4.43-1.65,1.57-.35,3.14-.53,4.72-.53,2.75,0,5.18.42,7.31,1.26,2.13.84,3.92,2.07,5.38,3.68,1.45,1.62,2.56,3.58,3.32,5.91.76,2.33,1.14,4.99,1.14,7.99v31.63h-11.96v-31.63c0-3.16-.69-5.55-2.08-7.14-1.39-1.6-3.42-2.4-6.1-2.4-1.23,0-2.37.21-3.41.63-1.05.42-1.97,1.03-2.76,1.82-.79.79-1.41,1.78-1.87,2.98s-.68,2.57-.68,4.12v31.63h-12.01v-31.63c0-3.33-.67-5.75-2.01-7.27-1.34-1.52-3.32-2.28-5.93-2.28-1.71,0-3.32.43-4.82,1.28-1.5.86-2.9,2.03-4.19,3.51v36.38h-11.96Z"/>
  <path class="cls-1" d="m285.68,418.06v-71.98h11.96v28.38c1.97-2.1,4.2-3.77,6.69-5.01s5.39-1.86,8.72-1.86c2.71,0,5.19.56,7.43,1.67,2.24,1.11,4.18,2.74,5.81,4.87,1.63,2.13,2.89,4.76,3.78,7.89.89,3.13,1.33,6.73,1.33,10.8,0,3.71-.5,7.15-1.5,10.32-1,3.17-2.43,5.91-4.29,8.24-1.86,2.32-4.1,4.14-6.73,5.45-2.63,1.31-5.58,1.96-8.84,1.96-1.52,0-2.91-.15-4.17-.46s-2.41-.73-3.44-1.28c-1.03-.55-1.99-1.22-2.88-2.01-.89-.79-1.74-1.67-2.54-2.64l-.53,3.34c-.2.84-.53,1.44-.99,1.79-.47.36-1.11.53-1.91.53h-7.9Zm23.25-41.17c-2.49,0-4.61.53-6.37,1.57-1.76,1.05-3.4,2.53-4.92,4.43v22.28c1.36,1.68,2.83,2.85,4.43,3.51,1.6.66,3.33.99,5.21.99s3.44-.34,4.89-1.02c1.45-.68,2.69-1.71,3.71-3.1,1.02-1.39,1.8-3.14,2.35-5.26.55-2.11.82-4.61.82-7.48s-.23-5.37-.7-7.39c-.47-2.02-1.14-3.66-2.01-4.92-.87-1.26-1.93-2.18-3.17-2.76s-2.66-.87-4.24-.87Z"/>
  <path class="cls-1" d="m340.76,418.06v-49.7h7.02c1.23,0,2.08.23,2.57.68.48.45.81,1.23.97,2.33l.73,6.01c1.78-3.07,3.86-5.49,6.25-7.27,2.39-1.78,5.07-2.66,8.04-2.66,2.45,0,4.49.56,6.1,1.69l-1.55,8.96c-.1.58-.31.99-.63,1.23-.32.24-.76.36-1.31.36-.48,0-1.15-.11-1.99-.34-.84-.23-1.95-.34-3.34-.34-2.49,0-4.62.69-6.39,2.06-1.78,1.37-3.28,3.38-4.5,6.03v30.95h-11.96Z"/>
  <path class="cls-1" d="m417.87,418.06h-5.38c-1.13,0-2.02-.17-2.66-.51s-1.13-1.02-1.45-2.06l-1.07-3.54c-1.26,1.13-2.49,2.12-3.71,2.98-1.21.85-2.46,1.57-3.75,2.16-1.29.58-2.66,1.02-4.12,1.31-1.45.29-3.07.44-4.84.44-2.1,0-4.04-.28-5.81-.85-1.78-.57-3.3-1.42-4.58-2.55s-2.27-2.54-2.98-4.23c-.71-1.69-1.07-3.65-1.07-5.88,0-1.88.49-3.73,1.48-5.56s2.62-3.48,4.92-4.96c2.29-1.47,5.34-2.7,9.15-3.67s8.54-1.46,14.19-1.46v-2.93c0-3.35-.7-5.83-2.11-7.44-1.41-1.61-3.45-2.42-6.13-2.42-1.94,0-3.55.23-4.84.68-1.29.45-2.42.96-3.37,1.53s-1.83,1.07-2.64,1.52c-.81.45-1.69.68-2.66.68-.81,0-1.5-.21-2.08-.63-.58-.42-1.05-.94-1.4-1.55l-2.18-3.83c5.72-5.23,12.61-7.85,20.68-7.85,2.91,0,5.5.48,7.77,1.43s4.21,2.28,5.79,3.97c1.58,1.69,2.78,3.72,3.61,6.08.82,2.36,1.24,4.94,1.24,7.75v31.39Zm-23.25-7.46c1.23,0,2.36-.11,3.39-.33,1.03-.22,2.01-.55,2.93-1,.92-.44,1.81-.99,2.66-1.64.86-.65,1.72-1.42,2.59-2.31v-8.32c-3.49,0-6.4.22-8.74.66-2.34.44-4.22,1-5.64,1.68-1.42.68-2.43,1.48-3.03,2.39-.6.91-.9,1.9-.9,2.98,0,2.11.62,3.63,1.86,4.54s2.87,1.37,4.87,1.37Z"/>
  <path class="cls-1" d="m464.56,378.88c-.36.45-.7.81-1.04,1.06-.34.26-.83.39-1.48.39s-1.21-.18-1.79-.56c-.58-.37-1.28-.79-2.08-1.26s-1.77-.89-2.88-1.26c-1.11-.37-2.5-.56-4.14-.56-2.1,0-3.94.38-5.52,1.14s-2.9,1.85-3.95,3.27-1.83,3.14-2.35,5.16c-.52,2.02-.77,4.3-.77,6.85s.28,5.01.85,7.07c.56,2.07,1.38,3.8,2.45,5.21s2.36,2.47,3.88,3.2c1.52.73,3.23,1.09,5.13,1.09s3.45-.23,4.63-.7c1.18-.47,2.17-.98,2.98-1.55.81-.56,1.51-1.08,2.11-1.55.6-.47,1.27-.7,2.01-.7.97,0,1.7.37,2.18,1.11l3.44,4.36c-1.32,1.55-2.76,2.85-4.31,3.9-1.55,1.05-3.16,1.89-4.82,2.52-1.66.63-3.38,1.07-5.16,1.33-1.78.26-3.54.39-5.28.39-3.07,0-5.96-.57-8.67-1.72-2.71-1.14-5.08-2.82-7.1-5.01-2.02-2.2-3.62-4.88-4.8-8.06s-1.77-6.8-1.77-10.87c0-3.65.53-7.03,1.58-10.15,1.05-3.12,2.59-5.81,4.62-8.09,2.04-2.28,4.55-4.06,7.56-5.35,3-1.29,6.46-1.94,10.37-1.94s6.97.6,9.76,1.79c2.79,1.2,5.3,2.91,7.53,5.14l-3.15,4.36Z"/>
  <path class="cls-1" d="m496.38,367.59c3.13,0,6.01.5,8.65,1.5,2.63,1,4.9,2.46,6.8,4.38,1.9,1.92,3.39,4.28,4.46,7.07,1.07,2.79,1.6,5.98,1.6,9.57,0,.9-.04,1.65-.12,2.25-.08.6-.23,1.07-.44,1.4s-.49.58-.85.73c-.35.15-.81.22-1.36.22h-30.71c.35,5.1,1.73,8.85,4.12,11.24,2.39,2.39,5.55,3.58,9.49,3.58,1.94,0,3.61-.23,5.01-.68,1.4-.45,2.63-.95,3.68-1.5,1.05-.55,1.97-1.05,2.76-1.5.79-.45,1.56-.68,2.3-.68.48,0,.9.1,1.26.29.35.19.66.47.92.82l3.49,4.36c-1.32,1.55-2.81,2.85-4.46,3.9-1.65,1.05-3.37,1.89-5.16,2.52-1.79.63-3.62,1.07-5.47,1.33-1.86.26-3.66.39-5.4.39-3.45,0-6.67-.57-9.64-1.72-2.97-1.14-5.55-2.84-7.75-5.08-2.2-2.25-3.92-5.02-5.18-8.33s-1.89-7.14-1.89-11.5c0-3.39.55-6.58,1.65-9.57,1.1-2.99,2.67-5.59,4.72-7.8,2.05-2.21,4.55-3.96,7.51-5.26s6.29-1.94,10-1.94Zm.24,8.57c-3.49,0-6.22.99-8.19,2.95-1.97,1.97-3.23,4.76-3.78,8.38h22.47c0-1.55-.21-3.01-.63-4.38-.42-1.37-1.07-2.57-1.94-3.61-.87-1.03-1.97-1.85-3.3-2.45s-2.87-.9-4.65-.9Z"/>
  <path class="cls-1" d="m404.27,247c1.97,0,3.88.36,5.73,1.1,1.86.73,3.5,1.71,4.95,2.93,1.44,1.22,2.61,2.65,3.49,4.28.88,1.63,1.32,3.35,1.32,5.15h-.31c-.17,0-.33-.06-.48-.18s-.26-.33-.33-.63c-.06-.92-.41-2.04-1.02-3.37-.61-1.32-1.5-2.6-2.67-3.82-1.18-1.22-2.65-2.27-4.44-3.14-1.78-.86-3.86-1.29-6.25-1.29s-4.44.35-6.37,1.07-3.6,1.71-5,2.98c-1.39,1.28-2.48,2.81-3.27,4.59-.78,1.78-1.17,3.77-1.17,5.94,0,3.17.84,6.2,2.53,9.11s4.2,5.96,7.57,9.15l24.27,23.24c1.73-2.58,3.1-5.25,4.07-8,.99-2.75,1.64-5.36,1.94-7.8.07-.27.14-.48.21-.62.06-.14.24-.2.51-.2h.41c-.1,2.54-.68,5.34-1.73,8.38-1.06,3.04-2.58,6.05-4.59,9l14.99,14.33h-.81c-.31,0-.56-.02-.77-.05-.2-.03-.45-.18-.76-.45l-13.31-12.9c-1.39,1.94-3,3.77-4.8,5.48-1.8,1.72-3.79,3.23-5.98,4.53-2.2,1.31-4.56,2.34-7.11,3.09-2.55.75-5.27,1.12-8.16,1.12-2.42,0-4.81-.4-7.16-1.19-2.36-.8-4.48-1.97-6.35-3.52-1.86-1.55-3.38-3.46-4.53-5.73-1.16-2.28-1.73-4.91-1.73-7.9,0-2.55.47-4.98,1.42-7.3.95-2.31,2.27-4.42,3.96-6.32s3.64-3.58,5.88-5.02c2.24-1.44,4.68-2.59,7.3-3.44-1.39-1.46-2.62-2.86-3.67-4.21-1.05-1.34-1.94-2.68-2.65-4.03-.72-1.34-1.25-2.72-1.6-4.15-.36-1.42-.53-2.95-.53-4.59,0-2.27.42-4.36,1.25-6.26s2-3.55,3.51-4.92,3.3-2.45,5.39-3.23c2.07-.79,4.36-1.18,6.88-1.18Zm-25.9,54.65c0,2.95.59,5.52,1.76,7.69,1.18,2.17,2.67,3.97,4.49,5.4s3.82,2.49,6.01,3.19,4.29,1.04,6.3,1.04c2.85,0,5.52-.36,8-1.1,2.48-.72,4.79-1.72,6.91-2.98,2.13-1.26,4.06-2.73,5.78-4.44,1.74-1.7,3.27-3.5,4.59-5.4l-25.74-24.73c-2.58.82-4.98,1.94-7.19,3.37s-4.12,3.07-5.74,4.92c-1.61,1.85-2.88,3.88-3.79,6.09-.92,2.21-1.38,4.52-1.38,6.93Z"/>
</svg>