<?xml version="1.0" encoding="UTF-8"?>
<svg id="Layer_1" data-name="Layer 1" xmlns="http://www.w3.org/2000/svg" viewBox="0 0 657.39 657.39">
  <defs>
    <style>
      .cls-1 {
        fill: #684969;
      }

      .cls-2 {
        fill: #ec9682;
      }
    </style>
  </defs>
  <path class="cls-2" d="m519.76,51.18c0-6.09-4.98-11.07-11.07-11.07h-1.29s0-1.29,0-1.29c0-6.09-4.98-11.07-11.07-11.07-6.09,0-11.07,4.98-11.07,11.07v1.34s0,21.23,0,21.23c0,.28.02.55.04.83.27.02.55.04.83.04h21.23s1.34,0,1.34,0c6.09,0,11.07-4.98,11.07-11.07Z"/>
  <path class="cls-2" d="m519.76,127.03c0-6.09-4.98-11.07-11.07-11.07h-1.29s0-1.29,0-1.29c0-6.09-4.98-11.07-11.07-11.07-6.09,0-11.07,4.98-11.07,11.07v1.34s0,21.23,0,21.23c0,.28.02.55.04.83.27.02.55.04.83.04h21.23s1.34,0,1.34,0c6.09,0,11.07-4.98,11.07-11.07Z"/>
  <path class="cls-1" d="m508.47,99.75c-6.09,0-11.07-4.98-11.07-11.07v-1.29s-1.29,0-1.29,0c-6.09,0-11.07-4.98-11.07-11.07,0-6.09,4.98-11.07,11.07-11.07h1.34s21.23,0,21.23,0c.28,0,.55.02.83.04.02.27.04.55.04.83v21.23s0,1.34,0,1.34c0,6.09-4.98,11.07-11.07,11.07Z"/>
  <path class="cls-1" d="m510.14,176.43c-6.09,0-11.07-4.98-11.07-11.07v-1.29s-1.29,0-1.29,0c-6.09,0-11.07-4.98-11.07-11.07,0-6.09,4.98-11.07,11.07-11.07h1.34s21.23,0,21.23,0c.28,0,.55.02.83.04.02.27.04.55.04.83v21.23s0,1.34,0,1.34c0,6.09-4.98,11.07-11.07,11.07Z"/>
  <path class="cls-2" d="m520.6,202.04c0-6.09-4.98-11.07-11.07-11.07h-1.29s0-1.29,0-1.29c0-6.09-4.98-11.07-11.07-11.07-6.09,0-11.07,4.98-11.07,11.07v1.34s0,21.23,0,21.23c0,.28.02.55.04.83.27.02.55.04.83.04h21.23s1.34,0,1.34,0c6.09,0,11.07-4.98,11.07-11.07Z"/>
  <path class="cls-2" d="m520.6,277.89c0-6.09-4.98-11.07-11.07-11.07h-1.29s0-1.29,0-1.29c0-6.09-4.98-11.07-11.07-11.07-6.09,0-11.07,4.98-11.07,11.07v1.34s0,21.23,0,21.23c0,.28.02.55.04.83.27.02.55.04.83.04h21.23s1.34,0,1.34,0c6.09,0,11.07-4.98,11.07-11.07Z"/>
  <path class="cls-1" d="m509.31,250.61c-6.09,0-11.07-4.98-11.07-11.07v-1.29s-1.29,0-1.29,0c-6.09,0-11.07-4.98-11.07-11.07,0-6.09,4.98-11.07,11.07-11.07h1.34s21.23,0,21.23,0c.28,0,.55.02.83.04.02.27.04.55.04.83v21.23s0,1.34,0,1.34c0,6.09-4.98,11.07-11.07,11.07Z"/>
  <path class="cls-1" d="m510.97,327.29c-6.09,0-11.07-4.98-11.07-11.07v-1.29s-1.29,0-1.29,0c-6.09,0-11.07-4.98-11.07-11.07,0-6.09,4.98-11.07,11.07-11.07h1.34s21.23,0,21.23,0c.28,0,.55.02.83.04.02.27.04.55.04.83v21.23s0,1.34,0,1.34c0,6.09-4.98,11.07-11.07,11.07Z"/>
  <path class="cls-2" d="m448.14,51.18c0-6.09,4.98-11.07,11.07-11.07h1.29s0-1.29,0-1.29c0-6.09,4.98-11.07,11.07-11.07,6.09,0,11.07,4.98,11.07,11.07v1.34s0,21.23,0,21.23c0,.28-.02.55-.04.83-.27.02-.55.04-.83.04h-21.23s-1.34,0-1.34,0c-6.09,0-11.07-4.98-11.07-11.07Z"/>
  <path class="cls-2" d="m448.14,127.03c0-6.09,4.98-11.07,11.07-11.07h1.29s0-1.29,0-1.29c0-6.09,4.98-11.07,11.07-11.07,6.09,0,11.07,4.98,11.07,11.07v1.34s0,21.23,0,21.23c0,.28-.02.55-.04.83-.27.02-.55.04-.83.04h-21.23s-1.34,0-1.34,0c-6.09,0-11.07-4.98-11.07-11.07Z"/>
  <path class="cls-1" d="m459.44,99.75c6.09,0,11.07-4.98,11.07-11.07v-1.29s1.29,0,1.29,0c6.09,0,11.07-4.98,11.07-11.07,0-6.09-4.98-11.07-11.07-11.07h-1.34s-21.23,0-21.23,0c-.28,0-.55.02-.83.04-.02.27-.04.55-.04.83v21.23s0,1.34,0,1.34c0,6.09,4.98,11.07,11.07,11.07Z"/>
  <path class="cls-1" d="m457.77,176.43c6.09,0,11.07-4.98,11.07-11.07v-1.29s1.29,0,1.29,0c6.09,0,11.07-4.98,11.07-11.07,0-6.09-4.98-11.07-11.07-11.07h-1.34s-21.23,0-21.23,0c-.28,0-.55.02-.83.04-.02.27-.04.55-.04.83v21.23s0,1.34,0,1.34c0,6.09,4.98,11.07,11.07,11.07Z"/>
  <path class="cls-2" d="m447.31,202.04c0-6.09,4.98-11.07,11.07-11.07h1.29s0-1.29,0-1.29c0-6.09,4.98-11.07,11.07-11.07,6.09,0,11.07,4.98,11.07,11.07v1.34s0,21.23,0,21.23c0,.28-.02.55-.04.83-.27.02-.55.04-.83.04h-21.23s-1.34,0-1.34,0c-6.09,0-11.07-4.98-11.07-11.07Z"/>
  <path class="cls-2" d="m447.31,277.89c0-6.09,4.98-11.07,11.07-11.07h1.29s0-1.29,0-1.29c0-6.09,4.98-11.07,11.07-11.07,6.09,0,11.07,4.98,11.07,11.07v1.34s0,21.23,0,21.23c0,.28-.02.55-.04.83-.27.02-.55.04-.83.04h-21.23s-1.34,0-1.34,0c-6.09,0-11.07-4.98-11.07-11.07Z"/>
  <path class="cls-1" d="m458.6,250.61c6.09,0,11.07-4.98,11.07-11.07v-1.29s1.29,0,1.29,0c6.09,0,11.07-4.98,11.07-11.07,0-6.09-4.98-11.07-11.07-11.07h-1.34s-21.23,0-21.23,0c-.28,0-.55.02-.83.04-.02.27-.04.55-.04.83v21.23s0,1.34,0,1.34c0,6.09,4.98,11.07,11.07,11.07Z"/>
  <path class="cls-1" d="m456.94,327.29c6.09,0,11.07-4.98,11.07-11.07v-1.29s1.29,0,1.29,0c6.09,0,11.07-4.98,11.07-11.07,0-6.09-4.98-11.07-11.07-11.07h-1.34s-21.23,0-21.23,0c-.28,0-.55.02-.83.04-.02.27-.04.55-.04.83v21.23s0,1.34,0,1.34c0,6.09,4.98,11.07,11.07,11.07Z"/>
  <path class="cls-2" d="m520.6,352.9c0-6.09-4.98-11.07-11.07-11.07h-1.29s0-1.29,0-1.29c0-6.09-4.98-11.07-11.07-11.07-6.09,0-11.07,4.98-11.07,11.07v1.34s0,21.23,0,21.23c0,.28.02.55.04.83.27.02.55.04.83.04h21.23s1.34,0,1.34,0c6.09,0,11.07-4.98,11.07-11.07Z"/>
  <path class="cls-2" d="m520.6,428.75c0-6.09-4.98-11.07-11.07-11.07h-1.29s0-1.29,0-1.29c0-6.09-4.98-11.07-11.07-11.07-6.09,0-11.07,4.98-11.07,11.07v1.34s0,21.23,0,21.23c0,.28.02.55.04.83.27.02.55.04.83.04h21.23s1.34,0,1.34,0c6.09,0,11.07-4.98,11.07-11.07Z"/>
  <path class="cls-1" d="m509.31,401.47c-6.09,0-11.07-4.98-11.07-11.07v-1.29s-1.29,0-1.29,0c-6.09,0-11.07-4.98-11.07-11.07,0-6.09,4.98-11.07,11.07-11.07h1.34s21.23,0,21.23,0c.28,0,.55.02.83.04.02.27.04.55.04.83v21.23s0,1.34,0,1.34c0,6.09-4.98,11.07-11.07,11.07Z"/>
  <path class="cls-1" d="m510.97,478.15c-6.09,0-11.07-4.98-11.07-11.07v-1.29s-1.29,0-1.29,0c-6.09,0-11.07-4.98-11.07-11.07,0-6.09,4.98-11.07,11.07-11.07h1.34s21.23,0,21.23,0c.28,0,.55.02.83.04.02.27.04.55.04.83v21.23s0,1.34,0,1.34c0,6.09-4.98,11.07-11.07,11.07Z"/>
  <path class="cls-2" d="m521.43,503.76c0-6.09-4.98-11.07-11.07-11.07h-1.29s0-1.29,0-1.29c0-6.09-4.98-11.07-11.07-11.07-6.09,0-11.07,4.98-11.07,11.07v1.34s0,21.23,0,21.23c0,.28.02.55.04.83.27.02.55.04.83.04h21.23s1.34,0,1.34,0c6.09,0,11.07-4.98,11.07-11.07Z"/>
  <path class="cls-2" d="m521.43,579.61c0-6.09-4.98-11.07-11.07-11.07h-1.29s0-1.29,0-1.29c0-6.09-4.98-11.07-11.07-11.07-6.09,0-11.07,4.98-11.07,11.07v1.34s0,21.23,0,21.23c0,.28.02.55.04.83.27.02.55.04.83.04h21.23s1.34,0,1.34,0c6.09,0,11.07-4.98,11.07-11.07Z"/>
  <path class="cls-1" d="m510.14,552.33c-6.09,0-11.07-4.98-11.07-11.07v-1.29s-1.29,0-1.29,0c-6.09,0-11.07-4.98-11.07-11.07,0-6.09,4.98-11.07,11.07-11.07h1.34s21.23,0,21.23,0c.28,0,.55.02.83.04.02.27.04.55.04.83v21.23s0,1.34,0,1.34c0,6.09-4.98,11.07-11.07,11.07Z"/>
  <path class="cls-1" d="m511.81,629.01c-6.09,0-11.07-4.98-11.07-11.07v-1.29s-1.29,0-1.29,0c-6.09,0-11.07-4.98-11.07-11.07,0-6.09,4.98-11.07,11.07-11.07h1.34s21.23,0,21.23,0c.28,0,.55.02.83.04.02.27.04.55.04.83v21.23s0,1.34,0,1.34c0,6.09-4.98,11.07-11.07,11.07Z"/>
  <path class="cls-2" d="m448.98,352.9c0-6.09,4.98-11.07,11.07-11.07h1.29s0-1.29,0-1.29c0-6.09,4.98-11.07,11.07-11.07,6.09,0,11.07,4.98,11.07,11.07v1.34s0,21.23,0,21.23c0,.28-.02.55-.04.83-.27.02-.55.04-.83.04h-21.23s-1.34,0-1.34,0c-6.09,0-11.07-4.98-11.07-11.07Z"/>
  <path class="cls-2" d="m448.98,428.75c0-6.09,4.98-11.07,11.07-11.07h1.29s0-1.29,0-1.29c0-6.09,4.98-11.07,11.07-11.07,6.09,0,11.07,4.98,11.07,11.07v1.34s0,21.23,0,21.23c0,.28-.02.55-.04.83-.27.02-.55.04-.83.04h-21.23s-1.34,0-1.34,0c-6.09,0-11.07-4.98-11.07-11.07Z"/>
  <path class="cls-1" d="m460.27,401.47c6.09,0,11.07-4.98,11.07-11.07v-1.29s1.29,0,1.29,0c6.09,0,11.07-4.98,11.07-11.07,0-6.09-4.98-11.07-11.07-11.07h-1.34s-21.23,0-21.23,0c-.28,0-.55.02-.83.04-.02.27-.04.55-.04.83v21.23s0,1.34,0,1.34c0,6.09,4.98,11.07,11.07,11.07Z"/>
  <path class="cls-1" d="m458.6,478.15c6.09,0,11.07-4.98,11.07-11.07v-1.29s1.29,0,1.29,0c6.09,0,11.07-4.98,11.07-11.07,0-6.09-4.98-11.07-11.07-11.07h-1.34s-21.23,0-21.23,0c-.28,0-.55.02-.83.04-.02.27-.04.55-.04.83v21.23s0,1.34,0,1.34c0,6.09,4.98,11.07,11.07,11.07Z"/>
  <path class="cls-2" d="m448.14,503.76c0-6.09,4.98-11.07,11.07-11.07h1.29s0-1.29,0-1.29c0-6.09,4.98-11.07,11.07-11.07,6.09,0,11.07,4.98,11.07,11.07v1.34s0,21.23,0,21.23c0,.28-.02.55-.04.83-.27.02-.55.04-.83.04h-21.23s-1.34,0-1.34,0c-6.09,0-11.07-4.98-11.07-11.07Z"/>
  <path class="cls-2" d="m448.14,579.61c0-6.09,4.98-11.07,11.07-11.07h1.29s0-1.29,0-1.29c0-6.09,4.98-11.07,11.07-11.07,6.09,0,11.07,4.98,11.07,11.07v1.34s0,21.23,0,21.23c0,.28-.02.55-.04.83-.27.02-.55.04-.83.04h-21.23s-1.34,0-1.34,0c-6.09,0-11.07-4.98-11.07-11.07Z"/>
  <path class="cls-1" d="m459.44,552.33c6.09,0,11.07-4.98,11.07-11.07v-1.29s1.29,0,1.29,0c6.09,0,11.07-4.98,11.07-11.07,0-6.09-4.98-11.07-11.07-11.07h-1.34s-21.23,0-21.23,0c-.28,0-.55.02-.83.04-.02.27-.04.55-.04.83v21.23s0,1.34,0,1.34c0,6.09,4.98,11.07,11.07,11.07Z"/>
  <path class="cls-1" d="m457.77,629.01c6.09,0,11.07-4.98,11.07-11.07v-1.29s1.29,0,1.29,0c6.09,0,11.07-4.98,11.07-11.07,0-6.09-4.98-11.07-11.07-11.07h-1.34s-21.23,0-21.23,0c-.28,0-.55.02-.83.04-.02.27-.04.55-.04.83v21.23s0,1.34,0,1.34c0,6.09,4.98,11.07,11.07,11.07Z"/>
</svg>