<?xml version="1.0" encoding="UTF-8"?>
<svg id="Layer_1" data-name="Layer 1" xmlns="http://www.w3.org/2000/svg" viewBox="0 0 657.39 657.39">
  <defs>
    <style>
      .cls-1 {
        fill: #fff;
      }

      .cls-2 {
        fill: #ec9682;
      }
    </style>
  </defs>
  <path class="cls-1" d="m255.45,245.8c0-33.38,27.16-60.54,60.54-60.54s60.54,27.16,60.54,60.54c0,.83-.03,1.66-.06,2.48,2.3.28,4.56.67,6.78,1.18.06-1.21.1-2.43.1-3.66,0-37.14-30.22-67.36-67.36-67.36s-67.36,30.22-67.36,67.36c0,21.01,9.67,39.8,24.8,52.17,2.21-1.21,4.47-2.33,6.78-3.37-15-11.03-24.75-28.79-24.75-48.79Z"/>
  <path class="cls-1" d="m418.09,373.99c-2.37-1.11-4.78-2.13-7.26-3.03.61,4.24.94,8.57.94,12.98,0,13.36-2.91,26.05-8.1,37.5,2.14.8,4.33,1.47,6.57,2.01,5.35-12.1,8.35-25.46,8.35-39.52,0-3.36-.17-6.68-.5-9.95Z"/>
  <path class="cls-1" d="m407.22,429.72c-2.24-.6-4.43-1.32-6.57-2.15-15.5,28.34-45.59,47.6-80.1,47.6-10.95,0-21.45-1.94-31.18-5.49.37,2.6.86,5.17,1.45,7.69,9.38,2.99,19.37,4.62,29.73,4.62,37.54,0,70.21-21.22,86.68-52.28Z"/>
  <path class="cls-1" d="m229.3,383.94c0-35.59,20.5-66.47,50.29-81.5-2.14-1.38-4.2-2.87-6.17-4.47-30.34,16.69-50.95,48.97-50.95,85.97,0,40.88,25.15,75.98,60.79,90.68-.49-2.62-.89-5.27-1.17-7.96-31.15-14.53-52.8-46.14-52.8-82.72Z"/>
  <path class="cls-1" d="m287.19,299.04c-2.43-1.32-4.76-2.81-6.98-4.45-2.31,1.04-4.57,2.16-6.78,3.37,1.97,1.61,4.03,3.09,6.17,4.47,2.47-1.25,5-2.38,7.59-3.4Z"/>
  <path class="cls-1" d="m368.57,354.66c0-1.71.09-3.4.21-5.08-5.86,1.29-11.52,3.08-16.94,5.37,2.95,1.52,6.04,2.81,9.25,3.82,2.46-.82,4.97-1.54,7.52-2.15-.02-.65-.05-1.3-.05-1.96Z"/>
  <path class="cls-1" d="m344.32,358.55c-17.51,9.23-30.16,20.7-39.42,38.19-.67,1.26-1.14,1.14,0,4.55,0,0,2.05,1.23,3.06,1.39.75.12,1.48-.26,1.85-.93,9.38-17.17,24.1-31.02,41.94-39.26-2.57-1.16-5.05-2.47-7.43-3.93Z"/>
  <path class="cls-1" d="m411.38,368.95c2.12.6,4.22,1.26,6.28,2.01-.28-1.96-.62-3.9-1.02-5.82-1.69,1.36-3.44,2.63-5.26,3.82Z"/>
  <path class="cls-1" d="m409.82,365.13c.4,1.92.74,3.86,1.02,5.82,2.47.9,4.89,1.92,7.26,3.03-.27-2.69-.68-5.34-1.17-7.96-1.85-.76-3.73-1.46-5.64-2.11-.49.41-.98.82-1.47,1.22Z"/>
  <path class="cls-1" d="m289.36,469.69c-2.47-.9-4.89-1.92-7.26-3.03.27,2.69.68,5.34,1.17,7.96,2.47,1.02,4.98,1.94,7.54,2.76-.59-2.53-1.08-5.09-1.45-7.69Z"/>
  <path class="cls-1" d="m365.21,367.99c.04,1.35.11,2.68.23,4.01,2.27.39,4.58.66,6.93.78-.23-2.02-.36-4.07-.38-6.15-2.29.37-4.55.83-6.79,1.37Z"/>
  <path class="cls-1" d="m393.68,311.78c1.71,1.57,3.35,3.21,4.94,4.89,9.33-6.16,20.5-9.76,32.49-9.76,1.01,0,2.02.03,3.01.08-.27-2.33-.67-4.61-1.2-6.85-.6-.02-1.21-.05-1.81-.05-13.89,0-26.79,4.33-37.43,11.69Z"/>
  <path class="cls-1" d="m365.38,360.96c2.29-.5,4.61-.94,6.95-1.28,1.67-15.56,9.4-29.33,20.78-38.89-1.58-1.65-3.21-3.24-4.91-4.76-12.88,11.07-21.45,27-22.82,44.93Z"/>
  <path class="cls-1" d="m400.64,427.58c2.14.83,4.33,1.55,6.57,2.15,1.09-2.05,2.09-4.14,3.04-6.27-2.24-.55-4.44-1.22-6.57-2.01-.94,2.08-1.94,4.14-3.04,6.13Z"/>
  <path class="cls-1" d="m393.11,320.78c1.75-1.47,3.59-2.84,5.5-4.11-1.59-1.68-3.23-3.32-4.94-4.89-1.9,1.32-3.73,2.73-5.48,4.24,1.7,1.52,3.33,3.12,4.91,4.76Z"/>
  <path class="cls-1" d="m372.33,359.68c-2.35.34-4.66.77-6.95,1.28-.13,1.68-.21,3.37-.21,5.08,0,.66.03,1.31.05,1.96,2.23-.54,4.49-1,6.79-1.37,0-.2-.01-.39-.01-.59,0-2.15.12-4.27.35-6.36Z"/>
  <path class="cls-1" d="m416.21,363.26c-.43-1.84-.91-3.67-1.44-5.47-1.48,1.33-3.03,2.57-4.64,3.75,2.06.51,4.09,1.08,6.09,1.72Z"/>
  <path class="cls-1" d="m411.38,368.95c-3.21-.91-6.49-1.66-9.83-2.22-7.89,3.91-16.77,6.12-26.16,6.12-1.01,0-2.02-.03-3.01-.08.27,2.33.67,4.61,1.2,6.85.6.02,1.21.05,1.81.05,13.27,0,25.63-3.95,35.99-10.73Z"/>
  <path class="cls-1" d="m420.15,352.3c.85,2.49,1.62,5.02,2.28,7.6,11.68-11.9,18.91-28.2,18.91-46.16,0-2.01-.11-4-.28-5.97-2.27-.39-4.58-.66-6.93-.78.25,2.22.4,4.46.4,6.74,0,14.73-5.42,28.2-14.36,38.56Z"/>
  <path class="cls-1" d="m378.98,255.55s.04,0,.07.01c1.93.35,3.77-1,3.96-2.95.11-1.04.19-2.09.24-3.15-2.22-.51-4.48-.9-6.78-1.18-.05,1.21-.13,2.4-.25,3.59-.17,1.76,1.01,3.37,2.75,3.68Z"/>
  <path class="cls-1" d="m414.76,357.79c.54,1.8,1.02,3.62,1.44,5.47.64.2,1.27.43,1.91.65,1.5-1.28,2.94-2.61,4.31-4.01-.65-2.58-1.42-5.11-2.28-7.6-1.68,1.95-3.48,3.78-5.39,5.5Z"/>
  <path class="cls-1" d="m351.85,354.96c-2.57,1.09-5.07,2.3-7.53,3.59,2.38,1.47,4.86,2.78,7.43,3.93,3.03-1.4,6.15-2.64,9.35-3.7-3.21-1.01-6.3-2.3-9.25-3.82Z"/>
  <path class="cls-1" d="m401.55,366.73c3.34.56,6.62,1.3,9.83,2.22,1.82-1.19,3.57-2.46,5.26-3.82-.13-.63-.29-1.25-.43-1.87-2-.64-4.03-1.21-6.09-1.72-2.69,1.96-5.55,3.7-8.56,5.19Z"/>
  <path class="cls-1" d="m411.29,363.91c-.64-.22-1.27-.44-1.91-.65.14.62.3,1.24.43,1.87.5-.4.99-.81,1.47-1.22Z"/>
  <path class="cls-1" d="m372.38,372.78c-2.35-.12-4.66-.39-6.93-.78.22,2.39.55,4.74,1.01,7.05,2.34.32,4.71.51,7.12.58-.53-2.24-.93-4.52-1.2-6.85Z"/>
  <path class="cls-1" d="m434.12,306.99c2.35.12,4.66.39,6.93.78-.22-2.39-.55-4.74-1.01-7.05-2.34-.32-4.71-.51-7.12-.58.53,2.24.93,4.52,1.2,6.85Z"/>
  <path class="cls-1" d="m419.48,362.71l-4.29,3.32,1.14-3.41s2.07-1.03,2.17-1.08.98.66.98.66"/>
  <circle class="cls-1" cx="307.18" cy="400.14" r="3.41"/>
  <path class="cls-2" d="m340.88,230.34c-6.41-6.41-16.9-6.41-23.31,0l-1.36,1.36-1.36-1.36c-6.41-6.41-16.9-6.41-23.31,0-6.41,6.41-6.41,16.9,0,23.31l1.41,1.41,22.35,22.35c.29.29.6.56.91.82.31-.27.62-.53.91-.82l22.35-22.35,1.41-1.41c6.41-6.41,6.41-16.9,0-23.31Z"/>
</svg>